<?xml version="1.0" encoding="iso-8859-1"?>
<!-- Generator: Adobe Illustrator 19.0.0, SVG Export Plug-In . SVG Version: 6.00 Build 0)  -->
<svg version="1.1" id="Capa_1" xmlns="http://www.w3.org/2000/svg" xmlns:xlink="http://www.w3.org/1999/xlink" x="0px" y="0px"
	 viewBox="0 0 512 512" style="enable-background:new 0 0 512 512;" xml:space="preserve">
<g>
	<g>
		<path d="M479.937,151.796v-8.517H512V64.125h-26.918l-16.031-32.063H42.949L26.918,64.125H0v79.155h32.063v289.566H12.418
			L0,445.264v34.674h159.812v-15.029H15.029v-13.42l3.613-3.613h474.714l3.613,3.613v13.42H175.843v15.029H512v-34.674
			l-12.418-12.418h-19.644V167.828h-15.029v16.532h-35.676l-12.418,12.418v182.57l12.418,12.417h35.676v41.08H175.342V184.36H64.125
			v248.485H47.092V143.28h417.816v8.517H479.937z M431.843,203.003l3.613-3.613h29.452v9.018h-33.065V203.003z M431.843,223.436
			h33.065v18.072l-16.532,13.526l-16.532,13.525V223.436z M431.843,287.979l16.532-13.526l16.532-13.526v28.675l-16.532,13.526
			l-16.532,13.526V287.979z M431.843,336.073l16.532-13.526l16.532-13.526v43.668h-33.065V336.073z M435.456,376.736l-3.613-3.613
			v-5.405h33.065v9.018H435.456z M79.155,199.389h81.159v97.19H79.155V199.389z M79.155,311.609h81.159v17.033H79.155V311.609z
			 M79.155,343.671h81.159v89.174H79.155V343.671z M52.238,47.092h407.525l8.517,17.033H43.721L52.238,47.092z M15.029,128.25
			V79.155h4.374h473.194h4.374v49.096H15.029z"/>
	</g>
</g>
<g>
	<g>
		<rect x="103.703" y="160.313" width="32.063" height="15.029"/>
	</g>
</g>
<g>
	<g>
		<path d="M192.376,184.36v168.329v15.029v24.047h207.405v-24.047v-15.029V184.36H192.376z M384.751,376.736H207.405v-9.018h177.346
			V376.736z M384.751,352.689H207.405V199.389h177.346V352.689z"/>
	</g>
</g>
<g>
	<g>
		<path d="M328.141,288.564c-3.755,0-7.306,0.889-10.459,2.459l-12.692-12.692l22.043-51.433l-13.814-5.92l-17.141,39.993
			l-17.139-39.993l-13.814,5.92l22.043,51.433l-12.692,12.692c-3.153-1.57-6.704-2.459-10.459-2.459
			c-12.983,0-23.546,10.563-23.546,23.546s10.563,23.546,23.546,23.546c12.983,0,23.546-10.563,23.546-23.546
			c0-3.755-0.889-7.306-2.459-10.459l10.975-10.976l10.975,10.976c-1.57,3.153-2.459,6.704-2.459,10.459
			c0,12.983,10.563,23.546,23.546,23.546c12.983,0,23.546-10.563,23.546-23.546S341.124,288.564,328.141,288.564z M264.016,320.626
			c-4.696,0-8.517-3.82-8.517-8.517c0-4.696,3.82-8.517,8.517-8.517c4.696,0,8.517,3.82,8.517,8.517
			C272.532,316.806,268.712,320.626,264.016,320.626z M328.141,320.626c-4.696,0-8.517-3.82-8.517-8.517
			c0-4.696,3.82-8.517,8.517-8.517c4.696,0,8.517,3.82,8.517,8.517C336.658,316.806,332.837,320.626,328.141,320.626z"/>
	</g>
</g>
<g>
	<g>
		<rect x="223.937" y="248.485" width="16.031" height="15.029"/>
	</g>
</g>
<g>
	<g>
		<rect x="352.188" y="248.485" width="16.031" height="15.029"/>
	</g>
</g>
<g>
	<g>
		<polygon points="103.703,208.407 103.703,223.436 136.266,223.436 136.266,239.969 151.295,239.969 151.295,208.407 		"/>
	</g>
</g>
<g>
	<g>
		<rect x="47.593" y="96.188" width="16.031" height="15.029"/>
	</g>
</g>
<g>
	<g>
		<rect x="79.656" y="96.188" width="152.297" height="15.029"/>
	</g>
</g>
<g>
	<g>
		<rect x="448.376" y="96.188" width="16.031" height="15.029"/>
	</g>
</g>
<g>
	<g>
		<rect x="280.047" y="96.188" width="152.297" height="15.029"/>
	</g>
</g>
<g>
	<g>
		<rect x="247.984" y="96.188" width="16.031" height="15.029"/>
	</g>
</g>
<g>
	<g>
		<rect x="136.266" y="256" width="15.029" height="16.031"/>
	</g>
</g>
<g>
</g>
<g>
</g>
<g>
</g>
<g>
</g>
<g>
</g>
<g>
</g>
<g>
</g>
<g>
</g>
<g>
</g>
<g>
</g>
<g>
</g>
<g>
</g>
<g>
</g>
<g>
</g>
<g>
</g>
</svg>
