<svg height="512pt" viewBox="0 -72 512 512" width="512pt" xmlns="http://www.w3.org/2000/svg"><path d="m496.96875 16.03125h-234.226562l-79.15625 39.578125 79.15625 39.578125h234.226562c8.566406 0 15.03125-7.46875 15.03125-16.03125v-48.09375c0-8.566406-6.464844-15.03125-15.03125-15.03125zm-225.4375 47.09375h177.34375v17.03125h-177.34375zm177.34375-15.03125h-177.34375v-17.03125h177.34375zm-192.375-12.890625v39.808594l-39.808594-19.902344zm240.46875 43.953125c0 .273438.277344 1 0 1h-33.0625v-49.09375h33.0625c.277344 0 0-.277344 0 0zm0 0"/><path d="m192.375 288.5625h16.03125v15.03125h-16.03125zm0 0"/><path d="m224.4375 288.5625h16.03125v15.03125h-16.03125zm0 0"/><path d="m256.5 288.5625h16.03125v15.03125h-16.03125zm0 0"/><path d="m400.78125 127.25v32.0625h15.03125v-32.0625c0-8.566406-6.464844-15.03125-15.03125-15.03125h-272.53125v15.03125h272.53125c.277344 0 0-.277344 0 0zm0 0"/><path d="m56.109375 215.921875c-12.984375 0-23.546875 10.5625-23.546875 23.546875 0 12.980469 10.5625 23.546875 23.546875 23.546875s23.546875-10.566406 23.546875-23.546875c0-12.984375-10.5625-23.546875-23.546875-23.546875zm0 32.0625c-4.695313 0-8.515625-3.820313-8.515625-8.515625s3.820312-8.519531 8.515625-8.519531 8.515625 3.824219 8.515625 8.519531-3.820312 8.515625-8.515625 8.515625zm0 0"/><path d="m144.28125 255.5h256.5v65.125h-131.359375l-8.015625 8.015625h-57.902344l-8.015625-8.015625h-132.363281v-33.0625h33.0625c8.5625 0 15.03125-7.46875 15.03125-16.03125v-271.53125h-111.21875v271.53125c0 8.5625 7.46875 16.03125 16.03125 16.03125h32.0625v33.0625h-16.03125v31.0625c0 8.5625 7.46875 16.03125 16.03125 16.03125h368.71875c8.566406 0 15.03125-7.46875 15.03125-16.03125v-31.0625h-16.03125v-65.125h96.1875v-79.15625h-367.71875zm-48.09375-127.25h-81.15625v-49.09375h81.15625zm0-113.21875v49.09375h-81.15625v-49.09375zm-81.15625 256.5v-64.125h65.125v-15.03125h-65.125v-49.09375h81.15625v128.25c0 .277344.277344 1 0 1h-80.15625c-.277344 0-1-.722656-1-1zm401.78125 80.15625c0 .277344.277344 1 0 1h-368.71875c-.277344 0-1-.722656-1-1v-16.03125h142.167969l8.019531 8.015625h70.347656l8.015625-8.015625h141.167969zm-257.5-160.3125h17.03125v16.03125h15.03125v-16.03125h17.03125v32.0625h15.03125v-32.0625h17.03125v16.03125h15.03125v-16.03125h17.03125v32.0625h15.03125v-32.0625h17.03125v16.03125h15.03125v-16.03125h17.03125v32.0625h15.03125v-32.0625h17.03125v16.03125h15.03125v-16.03125h17.03125v32.0625h15.03125v-32.0625h17.03125v16.03125h15.03125v-16.03125h17.03125v32.0625h15.03125v-32.0625h17.03125v49.09375h-337.65625zm0 0"/></svg>