<?xml version="1.0" encoding="iso-8859-1"?>
<!-- Generator: Adobe Illustrator 21.0.0, SVG Export Plug-In . SVG Version: 6.00 Build 0)  -->
<svg xmlns="http://www.w3.org/2000/svg" xmlns:xlink="http://www.w3.org/1999/xlink" version="1.1" id="Capa_1" x="0px" y="0px" viewBox="0 0 512 512" style="enable-background:new 0 0 512 512;" xml:space="preserve" width="512" height="512">
<g>
	<path d="M437.5,86c4.142,0,7.5-3.358,7.5-7.5v-40c0-4.142-3.358-7.5-7.5-7.5H404c-4.142,0-7.5,3.358-7.5,7.5s3.358,7.5,7.5,7.5h26   v25c-10.719,0-211.249,0-222,0V46h163.833c4.142,0,7.5-3.358,7.5-7.5s-3.358-7.5-7.5-7.5H208v-2.5C208,12.785,195.215,0,179.5,0   S151,12.785,151,28.5V31h-35.5c-4.142,0-7.5,3.358-7.5,7.5v40c0,4.142,3.358,7.5,7.5,7.5H151v56.667c0,4.142,3.358,7.5,7.5,7.5   s7.5-3.358,7.5-7.5V28.5c0-7.444,6.056-13.5,13.5-13.5S193,21.056,193,28.5c0,18.339,0,135.71,0,152.5h-27v-6.083   c0-4.142-3.358-7.5-7.5-7.5s-7.5,3.358-7.5,7.5V181h-35.5c-3.264,0-6.033,2.089-7.064,5H89.5C77.093,186,67,196.093,67,208.5   S77.093,231,89.5,231h18.936c1.031,2.911,3.8,5,7.064,5H160v17h-0.5c-9.649,0-17.5,7.851-17.5,17.5v152   c0,9.649,7.851,17.5,17.5,17.5h2.5v33.5c0,4.142,3.358,7.5,7.5,7.5h7.5v23.5c0,4.142,3.358,7.5,7.5,7.5s7.5-3.358,7.5-7.5V481h7.5   c4.142,0,7.5-3.358,7.5-7.5V440h2.5c9.649,0,17.5-7.851,17.5-17.5v-37.563c0-4.142-3.358-7.5-7.5-7.5s-7.5,3.358-7.5,7.5v0.563   h-10.5c-4.142,0-7.5,3.358-7.5,7.5s3.358,7.5,7.5,7.5H212v22c0,1.378-1.122,2.5-2.5,2.5c-17.661,0-32.336,0-50,0   c-1.378,0-2.5-1.122-2.5-2.5v-22h10.5c4.142,0,7.5-3.358,7.5-7.5s-3.358-7.5-7.5-7.5H157v-30.75h10.5c4.142,0,7.5-3.358,7.5-7.5   s-3.358-7.5-7.5-7.5H157V309h10.5c4.142,0,7.5-3.358,7.5-7.5s-3.358-7.5-7.5-7.5H157v-23.5c0-1.378,1.122-2.5,2.5-2.5   c24.054,0,26.494,0,50,0c1.378,0,2.5,1.122,2.5,2.5V294h-10.5c-4.142,0-7.5,3.358-7.5,7.5s3.358,7.5,7.5,7.5H212v30.75h-10.5   c-4.142,0-7.5,3.358-7.5,7.5s3.358,7.5,7.5,7.5h10.762c0.855,3.201,3.767,5.563,7.238,5.563c4.142,0,7.5-3.358,7.5-7.5V270.5   c0-9.649-7.851-17.5-17.5-17.5H209v-17h228.5c4.142,0,7.5-3.358,7.5-7.5v-40c0-4.142-3.358-7.5-7.5-7.5H405V86H437.5z M123,71V46   h28v25H123z M192,440v26h-15v-26H192z M279,181V86h18v95H279z M208,86h56v95h-56V86z M82,208.5c0-4.136,3.364-7.5,7.5-7.5H108v15   H89.5C85.364,216,82,212.636,82,208.5z M194,253h-19v-17h19V253z M430,221c-18.047,0-291.228,0-307,0v-25   c82.28,0,196.702,0,274.5,0H430V221z M390,181h-78V86h78V181z"/>
</g>















</svg>
