<svg viewBox="0 0 496 496" xmlns="http://www.w3.org/2000/svg">
    <path d="m464 136v-104h-170.359375l3.199219-32h-22.253906l-26.585938 66.457031-26.585938-66.457031h-22.253906l3.199219 32h-170.359375v104h-32v48h48v296h-16v16h432v-16h-16v-296h48v-48zm-16-88v88h-16v-72h-141.558594l1.597656-16zm-192 272h48v160h-48zm-16 160h-48v-160h48zm-64-176v176h-16v-296h27.054688c5.625 4.921875 12.898437 8 20.945312 8s15.3125-3.078125 20.945312-8h38.117188c5.625 4.921875 12.898438 8 20.945312 8 8.046876 0 15.3125-3.078125 20.945313-8h27.046875v296h-16v-176zm32.328125-212.359375 16.046875 16.046875c.578125 3.6875 1.9375 7.105469 3.992188 10.039062l-8.917969 12.480469c-3.570313-1.375-7.402344-2.207031-11.449219-2.207031-8.039062 0-15.3125 3.078125-20.945312 8h-107.054688v-56h127.160156zm79.671875 52.359375c8.824219 0 16 7.175781 16 16s-7.175781 16-16 16-16-7.175781-16-16 7.175781-16 16-16zm-40-48c4.40625 0 8 3.59375 8 8s-3.59375 8-8 8-8-3.59375-8-8 3.59375-8 8-8zm-24 64c0 8.824219-7.175781 16-16 16s-16-7.175781-16-16 7.175781-16 16-16 16 7.175781 16 16zm8.425781-20.425781 9-12.597657c2.101563.597657 4.277344 1.023438 6.574219 1.023438s4.472656-.425781 6.574219-1.03125l9 12.597656c-4.652344 5.5625-7.574219 12.632813-7.574219 20.433594 0 2.777344.464844 5.425781 1.136719 8h-18.273438c.671875-2.574219 1.136719-5.222656 1.136719-8 0-7.800781-2.921875-14.871094-7.574219-20.425781zm76.519531-3.574219c-5.625-4.921875-12.898437-8-20.945312-8-4.046875 0-7.878906.832031-11.449219 2.207031l-8.917969-12.480469c2.054688-2.933593 3.414063-6.351562 3.992188-10.039062l16.046875-16.046875 1.167969-11.640625h127.160156v56zm-31.875-99.144531-4.75 47.503906-5.242187 5.242187c-2.207031-2.914062-5.039063-5.28125-8.324219-6.945312zm-39.824218 45.808593c-3.285156 1.664063-6.125 4.03125-8.324219 6.945313l-5.242187-5.242187-4.75-47.503907zm-189.246094-34.664062h155.960938l1.597656 16h-141.558594v72h-16zm-32 104h161.136719c-.671875 2.574219-1.136719 5.222656-1.136719 8s.464844 5.425781 1.136719 8h-161.136719zm48 32h80v296h-80zm368 296h-80v-296h80zm48-312h-161.136719c.671875-2.574219 1.136719-5.222656 1.136719-8s-.464844-5.425781-1.136719-8h161.136719zm0 0" />
    <path d="m320 208h-144v48h144zm-16 28.6875-12.6875-12.6875h12.6875zm-52.6875-12.6875h17.375l16 16h-17.375zm-6.625 16h-17.375l-16-16h17.375zm-52.6875-12.6875 12.6875 12.6875h-12.6875zm0 0" />
    <path d="m272 384h16v16h-16zm0 0" />
    <path d="m208 384h16v16h-16zm0 0" />
    <path d="m392 440c13.230469 0 24-10.769531 24-24v-112c0-13.230469-10.769531-24-24-24s-24 10.769531-24 24v112c0 13.230469 10.769531 24 24 24zm0-16c-4.40625 0-8-3.59375-8-8v-16h16v16c0 4.40625-3.59375 8-8 8zm8-56v16h-16v-16zm-16-16v-16h16v16zm8-56c4.40625 0 8 3.59375 8 8v16h-16v-16c0-4.40625 3.59375-8 8-8zm0 0" />
    <path d="m0 480h16v16h-16zm0 0" />
    <path d="m480 480h16v16h-16zm0 0" />
</svg>
