<svg id="Layer_3" enable-background="new 0 0 64 64" viewBox="0 0 64 64" xmlns="http://www.w3.org/2000/svg">
    <path d="m23 5h2v2h-2z" />
    <path d="m13 5h8v2h-8z" />
    <path d="m15 57h8v2h-8z" />
    <path d="m29 57h2v2h-2z" />
    <path d="m7 57h2v2h-2z" />
    <path d="m46 5c-7.168 0-13 5.832-13 13s5.832 13 13 13 13-5.832 13-13-5.832-13-13-13zm0 24c-6.065 0-11-4.935-11-11s4.935-11 11-11 11 4.935 11 11-4.935 11-11 11z" />
    <path d="m46 1c-3.514 0-6.782 1.072-9.495 2.905-.797-1.725-2.518-2.905-4.505-2.905h-26c-2.757 0-5 2.243-5 5v52c0 2.757 2.243 5 5 5h26c2.757 0 5-2.243 5-5v-25.604c2.614 1.64 5.693 2.604 9 2.604 9.374 0 17-7.626 17-17s-7.626-17-17-17zm-43 5c0-1.654 1.346-3 3-3h26c1.353 0 2.505.913 2.862 2.188-1.266 1.101-2.362 2.385-3.258 3.812h-28.604zm28 19.983v23.017h-24v-34h22.281c-.174.976-.281 1.975-.281 3 0 2.885.727 5.601 2 7.983zm4 32.017c0 1.654-1.346 3-3 3h-26c-1.654 0-3-1.346-3-3v-3h32zm0-5h-32v-42h27.526c-.294.648-.561 1.312-.773 2h-24.753v38h28v-22.068c.609.724 1.28 1.393 2 2.006zm11-20c-8.271 0-15-6.729-15-15s6.729-15 15-15 15 6.729 15 15-6.729 15-15 15z" />
    <path d="m46 13c1.103 0 2 .897 2 2h2c0-1.858-1.279-3.411-3-3.858v-2.142h-2v2h-3v4c0 2.206 1.794 4 4 4 1.103 0 2 .897 2 2v2h-2c-1.103 0-2-.897-2-2h-2c0 1.858 1.279 3.411 3 3.858v2.142h2v-2h3v-4c0-2.206-1.794-4-4-4-1.103 0-2-.897-2-2v-2z" />
    <path d="m51 17h2v2h-2z" />
    <path d="m39 17h2v2h-2z" />
    <path d="m21 31h-4v4h-4v4h-4v8h18v-20h-6zm-8 14h-2v-4h2zm4 0h-2v-8h2zm4 0h-2v-12h2zm2-16h2v16h-2z" />
    <path d="m5.272 25h25.456v2h-25.456z" transform="matrix(.707 -.707 .707 .707 -13.113 20.343)" />
</svg>
