<svg viewBox="-98 0 512 512" xmlns="http://www.w3.org/2000/svg">
    <path d="m277.285156 152.308594h-3.410156c-9.640625 0-18.445312 3.625-25.136719 9.582031-5.375-14.917969-19.667969-25.617187-36.414062-25.617187h-1.75c-10.019531 0-19.160157 3.832031-26.039063 10.101562-5.511718-15.222656-20.109375-26.132812-37.214844-26.132812-9.273437 0-17.808593 3.21875-24.5625 8.582031v-89.261719c0-21.8125-17.746093-39.5625-39.5625-39.5625-21.816406 0-39.566406 17.75-39.566406 39.5625v191.742188l-22.121094 17.207031c-21.4999995 16.71875-27.730468 46.261719-14.820312 70.246093l42.023438 78.039063c4.425781 8.222656 6.769531 17.507813 6.769531 26.847656v64.824219c0 12.976562 10.554687 23.53125 23.53125 23.53125h196.570312c12.976563 0 23.53125-10.558594 23.53125-23.53125v-183.824219c9.691407-6.863281 16.03125-18.15625 16.03125-30.90625v-83.574219c0-20.875-16.984375-37.855468-37.859375-37.855468zm-66.707031-1.035156h1.75c13.0625 0 23.6875 10.628906 23.6875 23.691406v89.925781c0 13.0625-10.625 23.6875-23.6875 23.6875h-1.75c-13.0625 0-23.691406-10.625-23.691406-23.6875v-89.925781c0-13.0625 10.628906-23.691406 23.691406-23.691406zm-151.949219-111.710938c0-13.542969 11.019532-24.5625 24.5625-24.5625 13.546875 0 24.566406 11.019531 24.566406 24.5625v128.257812c0 4.144532 3.355469 7.5 7.5 7.5 4.140626 0 7.5-3.355468 7.5-7.5v-8.015624c0-13.542969 11.019532-24.5625 24.5625-24.5625 13.542969 0 24.566407 11.019531 24.566407 24.5625v96.195312c0 13.546875-11.023438 24.5625-24.566407 24.5625-9.109374 0-17.359374-5.035156-21.601562-12.859375l5.144531-4c15.199219-11.824219 20.234375-32.464844 11.976563-49.074219-5.398438-10.855468-15.164063-18.605468-26.792969-21.253906s-23.695313.03125-33.097656 7.347656l-24.320313 18.917969zm225.484375 425.375h-16.546875c-4.144531 0-7.5 3.355469-7.5 7.5 0 4.140625 3.355469 7.5 7.5 7.5h16.546875v8.53125c0 4.703125-3.828125 8.53125-8.53125 8.53125h-196.570312c-4.707031 0-8.535157-3.828125-8.535157-8.53125v-8.53125h165.023438c4.140625 0 7.5-3.359375 7.5-7.5 0-4.144531-3.359375-7.5-7.5-7.5h-165.023438v-41.292969c0-11.8125-2.960937-23.554687-8.5625-33.957031l-42.019531-78.042969c-9.429687-17.511719-4.878906-39.082031 10.820313-51.292969l61.445312-47.789062c5.839844-4.546875 13.332032-6.207031 20.554688-4.5625 7.332031 1.671875 13.257812 6.394531 16.691406 13.304688 5.097656 10.246093 1.835938 23.097656-7.753906 30.558593l-50.074219 38.945313c-1.601563 1.246094-2.628906 3.082031-2.851563 5.097656-.222656 2.015625.378907 4.03125 1.667969 5.59375l27.550781 33.421875c2.636719 3.195313 7.363282 3.648437 10.558594 1.015625 3.195313-2.636719 3.652344-7.363281 1.015625-10.558594l-22.644531-27.464844 26.902344-20.925781c7.125 11.375 19.722656 18.578125 33.542968 18.578125 11.453126 0 21.777344-4.898437 29.007813-12.699218 6.484375 12.304687 19.398437 20.714843 34.246094 20.714843h1.75c11.058593 0 21.042969-4.671875 28.097656-12.136719 6.367187 11.976563 18.96875 20.152344 33.449219 20.152344h3.414062c2.328125 0 4.609375-.222656 6.824219-.628906v153.96875zm16.03125-191.199219c0 12.605469-10.253906 22.859375-22.859375 22.859375h-3.410156c-12.605469 0-22.859375-10.253906-22.859375-22.859375v-83.574219c0-12.605468 10.253906-22.855468 22.859375-22.855468h3.410156c12.605469 0 22.859375 10.253906 22.859375 22.855468zm0 0" />
    <path d="m179.386719 387.75c4.140625 0 7.5-3.359375 7.5-7.5s-3.359375-7.5-7.5-7.5h-12.539063v-12.539062c0-4.144532-3.359375-7.5-7.5-7.5s-7.5 3.355468-7.5 7.5v12.539062h-17.066406v-12.539062c0-4.144532-3.355469-7.5-7.5-7.5-4.140625 0-7.5 3.355468-7.5 7.5v12.539062h-12.539062c-4.140626 0-7.5 3.359375-7.5 7.5s3.359374 7.5 7.5 7.5h12.539062v17.0625h-12.539062c-4.140626 0-7.5 3.359375-7.5 7.5 0 4.144531 3.359374 7.5 7.5 7.5h12.539062v12.542969c0 4.140625 3.359375 7.5 7.5 7.5 4.144531 0 7.5-3.359375 7.5-7.5v-12.542969h17.066406v12.542969c0 4.140625 3.359375 7.5 7.5 7.5s7.5-3.359375 7.5-7.5v-12.542969h12.539063c4.140625 0 7.5-3.355469 7.5-7.5 0-4.140625-3.359375-7.5-7.5-7.5h-12.539063v-17.0625zm-27.539063 17.0625h-17.066406v-17.0625h17.066406zm0 0" />
    <path d="m251.53125 424.855469h-8.53125v-88.695313c0-4.140625-3.359375-7.5-7.5-7.5s-7.5 3.359375-7.5 7.5v12.019532l-20.707031 13.804687c-3.449219 2.296875-4.378907 6.957031-2.082031 10.402344 1.445312 2.167969 3.824218 3.339843 6.25 3.339843 1.429687 0 2.875-.40625 4.152343-1.261718l12.386719-8.257813v58.648438h-8.53125c-4.144531 0-7.5 3.359375-7.5 7.5s3.355469 7.5 7.5 7.5h32.0625c4.144531 0 7.5-3.359375 7.5-7.5s-3.355469-7.5-7.5-7.5zm0 0" />
    </svg>
