<?xml version="1.0" encoding="iso-8859-1"?>
<!-- Generator: Adobe Illustrator 19.0.0, SVG Export Plug-In . SVG Version: 6.00 Build 0)  -->
<svg version="1.1" id="Capa_1" xmlns="http://www.w3.org/2000/svg" xmlns:xlink="http://www.w3.org/1999/xlink" x="0px" y="0px"
	 viewBox="0 0 496 496" style="enable-background:new 0 0 496 496;" xml:space="preserve">
<g>
	<g>
		<g>
			<path d="M496,264.176V246.8h-12.632c-10.008,0-19.912,2.448-28.888,6.808c6.096-8.424,9.52-18.632,9.52-29.352
				c0-13.392-5.208-25.976-14.68-35.448L432,171.488l-17.32,17.32c-9.472,9.472-14.68,22.056-14.68,35.448
				c0,2.92,0.336,5.776,0.832,8.592c-4.648-1.312-9.456-2.048-14.352-2.048H368v17.376c0,6.552,1.096,13.04,3.104,19.232
				l-0.896-0.448l-5.92,29.616c-1.456,7.288-1.824,14.68-1.224,21.984L360,315.488l-16.096,16.096
				c-8.8,8.8-14.176,20.088-15.536,32.28L320,355.488l-15.24,15.24C294.112,381.376,288,396.12,288,411.184
				c0,8.832,2.088,17.672,6.04,25.584l7.64,15.28c-17.232,8.136-35.208,14.456-53.68,18.896c-18.472-4.44-36.44-10.76-53.68-18.896
				l7.64-15.28c3.952-7.912,6.04-16.76,6.04-25.584c0-15.064-6.112-29.808-16.76-40.456L176,355.488l-8.368,8.368
				c-1.36-12.192-6.736-23.48-15.536-32.28L136,315.488l-3.064,3.064c0.608-7.304,0.232-14.688-1.224-21.984l-5.92-29.616
				l-0.896,0.448c2.008-6.184,3.104-12.672,3.104-19.224V230.8h-18.48c-4.896,0-9.712,0.736-14.352,2.048
				c0.496-2.816,0.832-5.68,0.832-8.592c0-13.392-5.208-25.976-14.68-35.448L64,171.488l-17.32,17.32
				C37.208,198.28,32,210.864,32,224.256c0,10.72,3.424,20.928,9.52,29.352c-8.976-4.36-18.88-6.808-28.888-6.808H0v17.376
				c0,16.48,6.688,32.624,18.344,44.28c0.824,0.824,1.72,1.568,2.592,2.344H16v23.032c0,13.08,5.096,25.376,14.344,34.624
				c5.432,5.432,11.936,9.384,19.016,11.76l-20.976,5.24l7.16,14.328c3.896,7.8,9.008,14.88,15.168,21.048
				c11.344,11.344,25.648,19,41.384,22.152l2.024,0.408c-0.36,0.496-0.768,0.944-1.104,1.456l-8.12,12.176l14.016,9.344
				C111.128,474.496,125.328,478.8,140,478.8s28.872-4.304,41.08-12.44l2.56-1.712c9.432,4.624,19.024,8.84,28.864,12.416
				c-9.768,1.048-19.592,1.736-29.48,1.736H152v16h31.024c21.984,0,43.752-2.576,64.976-7.384
				c21.224,4.808,42.992,7.384,64.976,7.384H344v-16h-31.024c-9.888,0-19.712-0.688-29.48-1.728
				c9.832-3.576,19.432-7.792,28.856-12.416l2.56,1.712C327.128,474.496,341.328,478.8,356,478.8s28.872-4.304,41.08-12.44
				l14.016-9.344l-8.12-12.176c-0.344-0.512-0.752-0.96-1.104-1.456l2.024-0.408c15.736-3.152,30.04-10.808,41.384-22.152
				c6.168-6.168,11.272-13.248,15.168-21.048l7.168-14.328l-20.976-5.24c7.08-2.376,13.576-6.328,19.016-11.76
				c9.248-9.24,14.344-21.536,14.344-34.616V310.8h-4.936c0.872-0.776,1.768-1.52,2.592-2.344
				C489.312,296.8,496,280.656,496,264.176z M131.216,342.888l4.784-4.776l4.784,4.784c7.232,7.232,11.216,16.848,11.216,27.08
				c0,6.928-1.88,13.744-5.456,19.696L136,407.256l-10.544-17.568C121.88,383.72,120,376.912,120,369.976
				C120,359.744,123.984,350.128,131.216,342.888z M116.024,299.712c2.4,11.992,1.264,24.328-3.28,35.68
				c-3.848,9.624-10.016,17.944-17.856,24.56c-2.136-4.064-4.08-8.2-5.928-12.376c-0.584-1.544-1.304-3.024-2.024-4.504
				c-0.04-0.088-0.064-0.184-0.096-0.272H88v-9.04c0-3.952,0.48-7.912,1.448-11.784c3.392-13.536,12.4-24.92,24.768-31.328
				L116.024,299.712z M104.416,376.064c-0.472-0.728-0.992-1.44-1.456-2.176c0.416-0.328,0.832-0.64,1.24-0.968
				C104.256,373.976,104.296,375.024,104.416,376.064z M89.192,252.96c6.032-4.032,13.064-6.16,20.328-6.16H112v1.376
				c0,12.272-4.976,24.288-13.656,32.968c-6.192,6.192-14.096,10.456-22.568,12.416c-0.8-2.6-1.704-5.152-2.808-7.616
				c-0.224-2.392-0.376-4.8-0.512-7.208l2.288-6.864C77.312,264.168,82.44,257.448,89.192,252.96z M76.728,309.704
				c-0.016,0.04-0.04,0.072-0.048,0.104c-0.008-0.032-0.016-0.064-0.016-0.096C76.688,309.712,76.704,309.704,76.728,309.704z
				 M57.992,200.12L64,194.112l6.008,6.008C76.36,206.472,80,215.272,80,224.256c0,11.44-5.68,22.056-15.192,28.4L64,253.192
				l-0.808-0.536C53.68,246.304,48,235.688,48,224.256C48,215.272,51.64,206.472,57.992,200.12z M29.656,297.144
				C20.976,288.464,16,276.448,16,264.176v-1.256c9.608,0.656,18.976,4.12,26.696,9.904c6.312,4.728,11.272,10.96,14.744,17.968
				c0.728,6.704,1.768,13.336,3.112,19.904C49.008,310.168,37.848,305.336,29.656,297.144z M41.656,357.144
				C35.52,351,32,342.512,32,333.832V326.8h3.656c10.984,0,21.304,4.272,29.072,12.04c2.992,2.992,5.424,6.448,7.36,10.176
				c0.64,1.56,1.392,3.08,2.064,4.632c0.52,1.408,1.024,2.824,1.384,4.288l2.216,8.864H64.968
				C56.288,366.8,47.792,363.28,41.656,357.144z M95.248,427.288c-12.632-2.52-24.112-8.664-33.216-17.768
				c-4.016-4.016-7.472-8.504-10.296-13.408l7.024-1.76c8.672-2.16,17.816-2.16,26.488,0c7.248,1.808,14.024,5.096,19.92,9.608
				c5.776,7.056,11.864,13.816,18.448,20.048c-5.304,1.16-10.328,3.192-14.928,5.968L95.248,427.288z M107.8,453.048l-0.68-0.456
				c6.288-8.656,16.312-13.792,27.08-13.792c2.696,0,5.392,0.352,8.008,1c5.352,4.024,10.88,7.84,16.632,11.376
				c2.712,1.672,5.528,3.136,8.288,4.712C148.616,465.576,125.312,464.72,107.8,453.048z M187.648,429.616l-7.608,15.224
				c-2.024-1.104-4.016-2.272-6.016-3.424l-7.872-11.808c-4.024-6.04-6.152-13.064-6.152-20.32c0-9.784,3.816-18.976,10.728-25.896
				l5.272-5.28l3.928,3.928C187.6,389.712,192,400.328,192,411.184C192,417.544,190.488,423.92,187.648,429.616z M425.992,200.12
				l6.008-6.008l6.008,6.008c6.352,6.352,9.992,15.152,9.992,24.136c0,11.44-5.68,22.056-15.192,28.4L432,253.192l-0.808-0.536
				c-9.512-6.352-15.192-16.968-15.192-28.4C416,215.272,419.64,206.472,425.992,200.12z M384,246.8h2.48
				c7.264,0,14.296,2.128,20.336,6.16c6.752,4.496,11.872,11.208,14.448,18.912l2.288,6.864c-0.136,2.408-0.288,4.816-0.512,7.208
				c-1.104,2.464-2.016,5.024-2.808,7.616c-8.472-1.96-16.376-6.224-22.568-12.416c-8.688-8.68-13.664-20.696-13.664-32.968V246.8z
				 M419.344,309.72c-0.008,0.032-0.016,0.064-0.016,0.104c-0.016-0.04-0.032-0.072-0.048-0.112
				C419.296,309.712,419.32,309.712,419.344,309.72z M379.976,299.712l1.808-9.064c12.368,6.408,21.376,17.792,24.76,31.32
				c0.968,3.88,1.456,7.84,1.456,11.792v9.04h1.16c-0.04,0.088-0.064,0.184-0.096,0.272c-0.72,1.48-1.44,2.96-2.024,4.504
				c-1.84,4.184-3.792,8.32-5.928,12.376c-7.84-6.616-14.008-14.936-17.856-24.568C378.712,324.04,377.576,311.704,379.976,299.712z
				 M393.04,373.896c-0.464,0.736-0.976,1.44-1.456,2.176c0.12-1.04,0.152-2.088,0.216-3.144
				C392.208,373.256,392.632,373.568,393.04,373.896z M355.216,342.896l4.784-4.784l4.784,4.784
				c7.232,7.232,11.216,16.848,11.216,27.08c0,6.928-1.88,13.744-5.456,19.696L360,407.256l-10.544-17.568
				C345.88,383.72,344,376.912,344,369.976C344,359.744,347.984,350.128,355.216,342.896z M315.96,444.84l-7.608-15.224
				c-2.848-5.696-4.352-12.072-4.352-18.432c0-10.856,4.4-21.472,12.072-29.144l3.928-3.928l5.272,5.272
				c6.912,6.92,10.728,16.12,10.728,25.904c0,7.256-2.128,14.28-6.152,20.32l-7.872,11.808
				C319.976,442.568,317.984,443.736,315.96,444.84z M388.2,453.048c-17.52,11.672-40.824,12.528-59.336,2.84
				c2.76-1.576,5.576-3.04,8.288-4.712c5.752-3.536,11.28-7.36,16.632-11.376c2.624-0.648,5.32-1,8.016-1
				c10.776,0,20.8,5.136,27.088,13.8L388.2,453.048z M433.968,409.52c-9.104,9.104-20.584,15.248-33.208,17.776l-13.44,2.688
				c-4.6-2.776-9.624-4.808-14.928-5.968c6.584-6.232,12.664-12.992,18.448-20.048c5.896-4.512,12.672-7.8,19.92-9.608
				c8.672-2.16,17.816-2.16,26.488,0l7.024,1.76C441.44,401.008,437.984,405.504,433.968,409.52z M464,333.832
				c0,8.68-3.52,17.168-9.656,23.312c-6.144,6.136-14.632,9.656-23.312,9.656h-12.784l2.208-8.864
				c0.368-1.464,0.864-2.88,1.384-4.288c0.68-1.552,1.424-3.064,2.064-4.632c1.936-3.72,4.368-7.184,7.36-10.176
				c7.776-7.768,18.096-12.04,29.08-12.04H464V333.832z M466.344,297.144c-8.192,8.192-19.352,13.024-30.896,13.552
				c1.344-6.56,2.384-13.2,3.112-19.904c3.464-7.008,8.432-13.24,14.752-17.968c7.712-5.792,17.08-9.248,26.688-9.904v1.256
				C480,276.448,475.024,288.464,466.344,297.144z"/>
			<rect x="168" y="86.8" width="16" height="16"/>
			<rect x="120" y="110.8" width="16" height="16"/>
			<path d="M121.896,182.8l23.888-13.352C176.976,152.008,212.328,142.8,248,142.8s71.024,9.208,102.208,26.648l23.896,13.352H390.4
				l28.232-113.608l-61.712,8.864l-25.712-51.728l-40.96,32.968L248,1.2l-42.248,58.104l-40.96-32.968L139.08,78.064L77.368,69.2
				L105.6,182.8H121.896z M148.248,95.544l22.008-44.272l38.552,31.032L248,28.4l39.184,53.896l38.552-31.032l22.008,44.272
				L397.36,88.4l-19.44,78.2l-19.904-11.136C324.448,136.712,286.4,126.8,248,126.8c-38.4,0-76.448,9.912-110.024,28.68
				l-19.904,11.136l-19.44-78.2L148.248,95.544z"/>
			<rect x="312" y="86.8" width="16" height="16"/>
			<rect x="360" y="110.8" width="16" height="16"/>
			<path d="M248,110.8c13.232,0,24-10.768,24-24s-10.768-24-24-24s-24,10.768-24,24S234.768,110.8,248,110.8z M248,78.8
				c4.416,0,8,3.584,8,8s-3.584,8-8,8s-8-3.584-8-8S243.584,78.8,248,78.8z"/>
		</g>
	</g>
</g>
<g>
</g>
<g>
</g>
<g>
</g>
<g>
</g>
<g>
</g>
<g>
</g>
<g>
</g>
<g>
</g>
<g>
</g>
<g>
</g>
<g>
</g>
<g>
</g>
<g>
</g>
<g>
</g>
<g>
</g>
</svg>
