<svg viewBox="0 0 64 64" xmlns="http://www.w3.org/2000/svg">
    <path d="m35.2 30.322.58-2.322h3.22a1 1 0 0 0 1-.917l1.586-19.083h5.414a1 1 0 0 0 1-1v-4a1 1 0 0 0 -1-1h-30a1 1 0 0 0 -1 1v4a1 1 0 0 0 1 1h5.414l1.586 19.083a1 1 0 0 0 1 .917h3.22l.58 2.322a16 16 0 1 0 6.4 0zm10.8-24.322h-4.247l.167-2h4.08zm-28 0v-2h4.08l.167 2zm20.08 20h-2.08v-22h3.913zm-4.08-22v6h-2v2h2v6h-2v2h2v6h-4v-2h2v-2h-2v-6h2v-2h-2v-6h2v-2h-2v-2zm-9.913 0h3.913v22h-2.08zm6.194 24h3.438l-.519 2.061c-.4-.03-.8-.061-1.2-.061s-.8.031-1.2.061zm1.719 32a14 14 0 1 1 14-14 14.015 14.015 0 0 1 -14 14z" />
    <path d="m32 34a12 12 0 1 0 12 12 12.013 12.013 0 0 0 -12-12zm5.752 3.834-2.552 2.553-2.341-3.9a1.04 1.04 0 0 0 -1.714 0l-2.341 3.9-2.554-2.553a9.937 9.937 0 0 1 11.5 0zm-2.738 9.33.643 3.864-3.142-1.885a1 1 0 0 0 -1.03 0l-3.142 1.885.643-3.864a1 1 0 0 0 -.279-.871l-2.679-2.679 3.172-.634a.992.992 0 0 0 .661-.465l2.139-3.572 2.143 3.572a.992.992 0 0 0 .661.465l3.168.634-2.679 2.679a1 1 0 0 0 -.279.871zm-3.014 8.836a9.985 9.985 0 0 1 -7.265-16.851l2.237 2.237-3.172.634a1 1 0 0 0 -.511 1.687l3.636 3.636-.915 5.493a1 1 0 0 0 1.5 1.021l4.49-2.691 4.485 2.691a1 1 0 0 0 1.5-1.021l-.915-5.493 3.636-3.636a1 1 0 0 0 -.506-1.687l-3.168-.634 2.237-2.237a9.985 9.985 0 0 1 -7.269 16.851z" />
    <path d="m14.819 35.91a3.914 3.914 0 0 1 -3.909-3.91 1 1 0 0 0 -2 0 3.914 3.914 0 0 1 -3.91 3.91 1 1 0 0 0 0 2 3.914 3.914 0 0 1 3.91 3.909 1 1 0 1 0 2 0 3.914 3.914 0 0 1 3.909-3.909 1 1 0 1 0 0-2zm-4.909 2.625a5.955 5.955 0 0 0 -1.625-1.625 5.955 5.955 0 0 0 1.625-1.625 5.955 5.955 0 0 0 1.625 1.625 5.955 5.955 0 0 0 -1.625 1.625z" />
    <path d="m53.819 26.91a3.914 3.914 0 0 1 -3.909-3.91 1 1 0 0 0 -2 0 3.914 3.914 0 0 1 -3.91 3.91 1 1 0 0 0 0 2 3.914 3.914 0 0 1 3.91 3.909 1 1 0 0 0 2 0 3.914 3.914 0 0 1 3.909-3.909 1 1 0 0 0 0-2zm-4.909 2.625a5.955 5.955 0 0 0 -1.625-1.625 5.955 5.955 0 0 0 1.625-1.625 5.955 5.955 0 0 0 1.625 1.625 5.955 5.955 0 0 0 -1.625 1.625z" />
    <path d="m13 57h2v2h-2z" />
    <path d="m18 30h2v2h-2z" />
    <path d="m50 53h2v2h-2z" />
</svg>
