<svg id="Layer_3" enable-background="new 0 0 64 64" viewBox="0 0 64 64" xmlns="http://www.w3.org/2000/svg">
    <path d="m37 19v-13c0-2.757-2.243-5-5-5h-26c-2.757 0-5 2.243-5 5v52c0 2.757 2.243 5 5 5h26c2.757 0 5-2.243 5-5v-13h26v-26zm-34-13c0-1.654 1.346-3 3-3h26c1.654 0 3 1.346 3 3v3h-32zm32 52c0 1.654-1.346 3-3 3h-26c-1.654 0-3-1.346-3-3v-3h32zm0-5h-32v-42h32v8h-2v-6h-28v38h28v-6h2zm-20-34v26h16v4h-24v-34h24v4zm5.899 2c-.399 1.956-1.943 3.5-3.899 3.899v-3.899zm-3.899 18.101c1.956.399 3.5 1.943 3.899 3.899h-3.899zm5.92 3.899c-.441-3.059-2.861-5.479-5.92-5.92v-10.16c3.059-.441 5.479-2.861 5.92-5.92h9.184c-3.66 2.302-6.104 6.366-6.104 11 0 4.633 2.445 8.697 6.104 11zm5.08-11c0-6.065 4.935-11 11-11s11 4.935 11 11-4.935 11-11 11-11-4.935-11-11zm33 11h-3.899c.399-1.956 1.943-3.5 3.899-3.899zm0-5.92c-3.059.441-5.479 2.861-5.92 5.92h-9.184c3.659-2.303 6.104-6.367 6.104-11 0-4.634-2.444-8.698-6.104-11h9.184c.441 3.059 2.861 5.479 5.92 5.92zm0-12.181c-1.956-.399-3.5-1.943-3.899-3.899h3.899z" />
    <path d="m23 5h2v2h-2z" />
    <path d="m13 5h8v2h-8z" />
    <path d="m15 57h8v2h-8z" />
    <path d="m29 57h2v2h-2z" />
    <path d="m7 57h2v2h-2z" />
    <path d="m39 27c1.103 0 2 .897 2 2h2c0-1.858-1.279-3.411-3-3.858v-2.142h-2v2h-3v4c0 2.206 1.794 4 4 4 1.103 0 2 .897 2 2v2h-2c-1.103 0-2-.897-2-2h-2c0 1.859 1.279 3.411 3 3.858v2.142h2v-2h3v-4c0-2.206-1.794-4-4-4-1.103 0-2-.897-2-2v-2z" />
    <path d="m11 32h-2v15h4v-2h-2z" />
    <path d="m9 28h2v2h-2z" />
</svg>
