<?xml version="1.0" encoding="iso-8859-1"?>
<!-- Generator: Adobe Illustrator 19.0.0, SVG Export Plug-In . SVG Version: 6.00 Build 0)  -->
<svg version="1.1" id="Capa_1" xmlns="http://www.w3.org/2000/svg" xmlns:xlink="http://www.w3.org/1999/xlink" x="0px" y="0px"
	 viewBox="0 0 512 512" style="enable-background:new 0 0 512 512;" xml:space="preserve">
<g>
	<g>
		<path d="M162.38,127.6c-1.73-1.43-3.96-2.29-6.38-2.29c-5.52,0-10,4.48-10,10c0,4.72,3.26,8.66,7.64,9.71
			c0.76,0.19,1.55,0.29,2.36,0.29c5.52,0,10-4.47,10-10C166,132.21,164.59,129.451,162.38,127.6z"/>
	</g>
</g>
<g>
	<g>
		<path d="M315.33,171.029c-1.177-3.62-4.306-6.258-8.072-6.805l-29.227-4.244l-13.063-26.484c-1.685-3.414-5.161-5.576-8.968-5.576
			c0,0,0,0-0.001,0c-3.806,0-7.282,2.161-8.967,5.574L233.96,159.98l-29.228,4.245c-3.767,0.547-6.896,3.185-8.072,6.805
			c-1.177,3.62-0.196,7.594,2.528,10.251l21.147,20.621l-4.992,29.11c-0.643,3.751,0.899,7.543,3.979,9.78
			c3.079,2.238,7.163,2.532,10.531,0.761l26.146-13.744l26.137,13.744c3.346,1.759,7.431,1.493,10.531-0.761
			c3.08-2.237,4.622-6.029,3.979-9.78l-4.992-29.11l21.147-20.621C315.526,178.623,316.507,174.649,315.33,171.029z
			 M273.929,191.251c-2.355,2.297-3.431,5.606-2.875,8.85l2.455,14.318l-12.854-6.76c-2.913-1.532-6.393-1.532-9.308,0
			l-12.866,6.764l2.456-14.322c0.556-3.243-0.52-6.552-2.875-8.85l-10.405-10.146l14.381-2.088c3.257-0.473,6.073-2.519,7.529-5.47
			l6.431-13.027l6.424,13.025c1.457,2.953,4.273,4.999,7.531,5.472l14.382,2.088L273.929,191.251z"/>
	</g>
</g>
<g>
	<g>
		<path d="M256,65.311c-50.202,0-80.624,31.383-81.274,31.778c-4.083,3.719-4.377,10.044-0.658,14.126
			c3.72,4.083,10.044,4.377,14.127,0.658C208.2,93.725,232.014,85.311,256,85.311c55.141,0,100,44.86,100,100
			c0,54.96-44.587,100-100,100c-56.559,0-102.675-47.309-99.875-105.05c0.093-1.706,0.223-3.419,0.387-5.093
			c0.54-5.496-3.479-10.39-8.975-10.929c-5.518-0.546-10.391,3.479-10.93,8.975c-0.192,1.963-0.346,3.971-0.456,6.022
			C132.789,248.404,187.996,305.31,256,305.31c66.659,0,120-54.277,120-120C376,119.142,322.168,65.311,256,65.311z"/>
	</g>
</g>
<g>
	<g>
		<path d="M439.213,179.183l-27.584-35.569l6.109-44.596c0.62-4.522-1.901-8.89-6.126-10.615L369.93,71.381l-17.012-41.67
			c-1.725-4.226-6.093-6.75-10.615-6.128l-44.596,6.109L262.129,2.099c-3.607-2.798-8.65-2.798-12.258,0l-35.578,27.594
			l-44.596-6.109c-4.52-0.618-8.89,1.901-10.615,6.128l-17.012,41.67l-41.682,17.022c-4.225,1.726-6.746,6.093-6.126,10.615
			l6.109,44.596l-27.584,35.569c-2.796,3.605-2.796,8.648,0,12.255l27.585,35.579l-6.109,44.597
			c-0.62,4.523,1.902,8.891,6.128,10.616l41.68,17.012l17.011,41.679c1.726,4.227,6.097,6.751,10.616,6.128L186,344.814V502
			c0,4.045,2.437,7.691,6.173,9.239c3.738,1.546,8.039,0.692,10.898-2.168L256,456.142l52.929,52.929
			c2.861,2.861,7.161,3.714,10.898,2.168c3.736-1.548,6.173-5.194,6.173-9.239V344.814l16.303,2.234
			c4.523,0.622,8.892-1.901,10.616-6.128l17.011-41.679l41.68-17.012c4.226-1.725,6.748-6.093,6.128-10.616l-6.109-44.597
			l27.585-35.579C442.01,187.831,442.01,182.789,439.213,179.183z M306,477.858L306,477.858l-42.929-42.929
			c-3.906-3.905-10.236-3.905-14.143,0L206,477.858V342.074l8.293-1.136l35.58,27.585c1.803,1.398,3.965,2.097,6.127,2.097
			s4.324-0.699,6.127-2.097l35.58-27.585l8.293,1.136V477.858z M393.247,218.084c-1.646,2.125-2.369,4.822-2.004,7.485l5.627,41.075
			l-38.39,15.669c-2.488,1.016-4.464,2.991-5.479,5.479l-15.668,38.389l-17.428-2.388c-1.559-0.662-3.288-0.938-5.151-0.706
			l-18.496-2.534c-2.67-0.363-5.361,0.358-7.484,2.005L256,347.967l-32.773-25.41c-2.107-1.634-4.793-2.37-7.484-2.005
			l-41.075,5.627L159,287.79c-1.016-2.489-2.991-4.464-5.479-5.479l-38.39-15.669l5.627-41.075c0.365-2.663-0.357-5.36-2.004-7.485
			l-25.408-32.771l25.406-32.762c1.647-2.125,2.37-4.822,2.005-7.486l-5.627-41.077l38.392-15.678
			c2.487-1.016,4.461-2.99,5.477-5.478l15.669-38.379l41.075,5.627c2.669,0.363,5.361-0.358,7.486-2.005L256,22.657l32.771,25.417
			c2.124,1.647,4.821,2.369,7.486,2.005l41.075-5.627l15.669,38.379c1.016,2.488,2.989,4.462,5.477,5.478l38.392,15.678
			l-5.627,41.077c-0.365,2.664,0.357,5.361,2.005,7.486l25.407,32.763L393.247,218.084z"/>
	</g>
</g>
<g>
</g>
<g>
</g>
<g>
</g>
<g>
</g>
<g>
</g>
<g>
</g>
<g>
</g>
<g>
</g>
<g>
</g>
<g>
</g>
<g>
</g>
<g>
</g>
<g>
</g>
<g>
</g>
<g>
</g>
</svg>
