<svg id="Layer_3" enable-background="new 0 0 64 64" height="512" viewBox="0 0 64 64" width="512" xmlns="http://www.w3.org/2000/svg"><path d="m36 5h2v2h-2z"/><path d="m26 5h8v2h-8z"/><path d="m28 57h8v2h-8z"/><path d="m42 57h2v2h-2z"/><path d="m20 57h2v2h-2z"/><path d="m50 9.051v-3.051c0-2.757-2.243-5-5-5h-26c-2.757 0-5 2.243-5 5v15h-9.693l-3.036 8.098c-.18.476-.271.977-.271 1.489v.177c0 1.513.804 2.833 2 3.583v12.653h11v11c0 2.757 2.243 5 5 5h26c2.757 0 5-2.243 5-5v-21.051c7.253-.516 13-6.567 13-13.949s-5.747-13.433-13-13.949zm-34-3.051c0-1.654 1.346-3 3-3h26c1.654 0 3 1.346 3 3v3h-32zm0 5h25.826c-.945.567-1.822 1.234-2.605 2h-21.221v8h-2zm8.976 20c-.12 1.121-1.06 2-2.212 2h-1.527c-1.152 0-2.093-.879-2.212-2zm-6.196-2-1.499-6h4.101l3 6zm6.22 18v-12.654c1.196-.75 2-2.07 2-3.583 0-.654-.154-1.31-.447-1.895l-3.935-7.868h-2.618v-6h17.527c-1.588 2.27-2.527 5.026-2.527 8 0 5.957 3.746 11.042 9 13.061v12.939h-24v-2zm-12.219-24h2.438l1.501 6h-5.44zm4.195 8c-.12 1.121-1.06 2-2.212 2h-1.527c-1.152 0-2.093-.879-2.212-2zm-11.283-8h5.025l-1.499 6h-5.776zm-2.669 8h5.952c-.12 1.121-1.06 2-2.212 2h-1.528c-1.152 0-2.092-.879-2.212-2zm5.976 14h-4v-10.024c.08.005.155.024.236.024h1.527c1.305 0 2.459-.605 3.236-1.536.779.931 1.933 1.536 3.237 1.536h1.527c1.305 0 2.459-.605 3.236-1.536.779.931 1.933 1.536 3.237 1.536h1.527c.081 0 .156-.019.236-.024v10.024h-4v-8h-9.999zm2 0v-6h6v6zm37 13c0 1.654-1.346 3-3 3h-26c-1.654 0-3-1.346-3-3v-3h32zm0-5h-32v-6h2v4h28v-14.332c.651.143 1.319.233 2 .281zm10-22.089c-2.201 2.501-5.415 4.089-9 4.089s-6.799-1.588-9-4.089v-.788c0-1.379.935-2.576 2.272-2.911l1.765-.441 1.468 5.138 3.495-3.495 3.495 3.495 1.468-5.138 1.765.441c1.337.335 2.272 1.532 2.272 2.911zm-7.503-8.33-.497.289v1.716l-1 1-1-1v-1.716l-.497-.289c-.941-.548-1.503-1.513-1.503-2.581v-1.793c0-1.659 1.198-3.062 2.729-3.195.851-.072 1.672.201 2.298.776.619.567.973 1.373.973 2.212v2c0 1.068-.562 2.033-1.503 2.581zm.809 3.527.714.178-.516 1.805-1.09-1.091zm-4.612 0 .892.892-1.091 1.091-.516-1.805zm9.518-.836-4.212-1.053v-.239c1.246-.939 2-2.416 2-3.979v-2c0-1.397-.591-2.741-1.622-3.687-1.03-.943-2.42-1.419-3.823-1.294-2.554.221-4.555 2.501-4.555 5.187v1.793c0 1.563.754 3.04 2 3.979v.239l-4.212 1.054c-1.651.413-2.928 1.614-3.483 3.141-.828-1.628-1.305-3.464-1.305-5.413 0-6.617 5.383-12 12-12s12 5.383 12 12c0 1.949-.477 3.785-1.305 5.414-.555-1.527-1.833-2.729-3.483-3.142z"/><path d="m32 29v2h-3v4c0 2.206 1.794 4 4 4 1.103 0 2 .897 2 2v2h-2c-1.103 0-2-.897-2-2h-2c0 1.859 1.279 3.411 3 3.858v2.142h2v-2h3v-4c0-2.206-1.794-4-4-4-1.103 0-2-.897-2-2v-2h2c1.103 0 2 .897 2 2h2c0-1.859-1.279-3.411-3-3.858v-2.142z"/><path d="m22 17h11v2h-11z"/></svg>