<?xml version="1.0" encoding="utf-8"?>
<svg version="1.1" id="Layer_1" xmlns="http://www.w3.org/2000/svg" xmlns:xlink="http://www.w3.org/1999/xlink" x="0px" y="0px" viewBox="0 0 512 512" style="enable-background:new 0 0 512 512;" xml:space="preserve">
    <g>
        <path d="M85.7,404.8l95,0.2l-0.1,32.5c0,4.1,3.3,7.5,7.5,7.5l40,0.1c4.1,0,7.5-3.3,7.5-7.5l0.5-228.5l17,0l0,0.5 c0,9.6,7.8,17.5,17.5,17.5l82.3,0.2c4.1,0,7.5-3.3,7.5-7.5c0-3.5-2.3-6.4-5.5-7.3l0-10.8c0-4.1-3.3-7.5-7.5-7.5s-7.5,3.3-7.5,7.5 l0,10.5l-30.7-0.1l0-10.5c0-4.1-3.3-7.5-7.5-7.5c-4.1,0-7.5,3.3-7.5,7.5l0,10.5l-23.5-0.1c-1.4,0-2.5-1.1-2.5-2.5 c0.1-23.5,0.1-25.9,0.1-50c0-1.4,1.1-2.5,2.5-2.5l23.5,0.1l0,10.5c0,4.1,3.3,7.5,7.5,7.5c4.1,0,7.5-3.3,7.5-7.5l0-10.5l30.7,0.1 l0,10.5c0,4.1,3.3,7.5,7.5,7.5c4.1,0,7.5-3.3,7.5-7.5l0-10.5l30.7,0.1l0,10.5c0,4.1,3.3,7.5,7.5,7.5s7.5-3.3,7.5-7.5l0-10.5l22,0 c1.4,0,2.5,1.1,2.5,2.5c0,17.7-0.1,32.3-0.1,50c0,1.4-1.1,2.5-2.5,2.5l-22,0l0-10.5c0-4.1-3.3-7.5-7.5-7.5c-4.1,0-7.5,3.3-7.5,7.5 l0,10.5l-0.6,0c-4.1,0-7.5,3.3-7.5,7.5c0,4.1,3.3,7.5,7.5,7.5l37.6,0.1c9.6,0,17.5-7.8,17.5-17.5l0-2.5l33.5,0.1 c4.1,0,7.5-3.3,7.5-7.5l0-7.5l23.5,0.1c4.1,0,7.5-3.3,7.5-7.5c0-4.1-3.3-7.5-7.5-7.5l-23.5-0.1l0-7.5c0-4.1-3.3-7.5-7.5-7.5 l-33.5-0.1l0-2.5c0-9.6-7.8-17.5-17.5-17.5l-152-0.3c-9.6,0-17.5,7.8-17.5,17.5l0,0.5l-17,0l0.1-44.5c0-3.3-2.1-6-5-7.1l0-18.9 c0-12.4-10-22.5-22.5-22.5c-12.4,0-22.5,10-22.5,22.5l0,18.9c-2.9,1-5,3.8-5,7.1l-0.1,35.5l-6.1,0c-4.1,0-7.5,3.3-7.5,7.5 s3.3,7.5,7.5,7.5l6.1,0l-0.1,27c-16.8,0-134.2-0.3-152.5-0.3c-7.4,0-13.5-6.1-13.5-13.5s6.1-13.5,13.5-13.5l114.2,0.3 c4.1,0,7.5-3.3,7.5-7.5c0-4.1-3.3-7.5-7.5-7.5l-56.7-0.1l0.1-35.5c0-4.1-3.3-7.5-7.5-7.5l-40-0.1c-4.1,0-7.5,3.3-7.5,7.5l-0.1,35.5 l-2.5,0c-15.7,0-28.5,12.7-28.6,28.4s12.7,28.5,28.4,28.6l2.5,0l-0.4,163.8c0,4.1,3.3,7.5,7.5,7.5c4.1,0,7.5-3.3,7.5-7.5l0.4-163.8 l25,0.1c0,10.8-0.5,211.3-0.5,222l-25-0.1l0.1-26c0-4.1-3.3-7.5-7.5-7.5s-7.5,3.3-7.5,7.5l-0.1,33.5c0,4.1,3.3,7.5,7.5,7.5l40,0.1 c4.1,0,7.5-3.3,7.5-7.5L85.7,404.8z M71.2,150.8l-25-0.1l0.1-28l25,0.1L71.2,150.8z M440.2,177.6l26,0.1l0,15l-26-0.1L440.2,177.6z  M180.9,297l-95-0.2l0-18l95,0.2L180.9,297z M181.1,208l-0.1,56l-95-0.2l0.1-56L181.1,208z M216.4,89.6l0,18.5l-15,0l0-18.5 c0-4.1,3.4-7.5,7.5-7.5C213,82.1,216.4,85.4,216.4,89.6z M236.1,194.1l0-19l17,0l0,19L236.1,194.1z M195.6,430l0.1-32.5 c0.2-77.8,0.4-192.2,0.6-274.5l25,0.1c0,15.8-0.6,289-0.7,307L195.6,430z M85.7,389.8l0.2-78l95,0.2l-0.2,78L85.7,389.8z" />
    </g>
</svg>
