<svg viewBox="0 -16 480 480" xmlns="http://www.w3.org/2000/svg">
    <path d="m384 192c53.019531 0 96-42.980469 96-96s-42.980469-96-96-96-96 42.980469-96 96c.058594 52.996094 43.003906 95.941406 96 96zm0-176c44.183594 0 80 35.816406 80 80s-35.816406 80-80 80-80-35.816406-80-80c.046875-44.164062 35.835938-79.953125 80-80zm0 0" />
    <path d="m384 120c11.675781.023438 21.664062-8.378906 23.644531-19.886719 1.976563-11.507812-4.632812-22.761719-15.644531-26.640625v-33.472656h-16v33.472656c-6.777344 2.417969-12.109375 7.75-14.527344 14.527344h-25.472656v16h25.472656c3.378906 9.554688 12.394532 15.957031 22.527344 16zm0-32c4.417969 0 8 3.582031 8 8s-3.582031 8-8 8-8-3.582031-8-8 3.582031-8 8-8zm0 0" />
    <path d="m16 280h144c8.835938 0 16-7.164062 16-16v-112c0-8.835938-7.164062-16-16-16h-32v-8h-16v8h-48v-8h-16v8h-32c-8.835938 0-16 7.164062-16 16v112c0 8.835938 7.164062 16 16 16zm0-16v-80h144v80zm32-112v8h16v-8h48v8h16v-8h32v16h-144v-16zm0 0" />
    <path d="m32 200h16v16h-16zm0 0" />
    <path d="m64 200h16v16h-16zm0 0" />
    <path d="m96 200h16v16h-16zm0 0" />
    <path d="m128 200h16v16h-16zm0 0" />
    <path d="m32 232h16v16h-16zm0 0" />
    <path d="m64 232h16v16h-16zm0 0" />
    <path d="m96 232h16v16h-16zm0 0" />
    <path d="m128 232h16v16h-16zm0 0" />
    <path d="m472 384h-24v-192h-16v192h-384v-88h-16v88h-24c-4.417969 0-8 3.582031-8 8v32c0 13.253906 10.746094 24 24 24h432c13.253906 0 24-10.746094 24-24v-32c0-4.417969-3.582031-8-8-8zm-264 16h64v8h-64zm256 24c0 4.417969-3.582031 8-8 8h-432c-4.417969 0-8-3.582031-8-8v-24h176v8c0 8.835938 7.164062 16 16 16h64c8.835938 0 16-7.164062 16-16v-8h176zm0 0" />
    <path d="m72 96h200v-16h-200c-22.082031.027344-39.972656 17.917969-40 40h16c0-13.253906 10.746094-24 24-24zm0 0" />
    <path d="m80 352h320v16h-320zm0 0" />
    <path d="m216 272c0 35.347656 28.652344 64 64 64s64-28.652344 64-64-28.652344-64-64-64c-35.328125.039062-63.960938 28.671875-64 64zm64-48c26.507812 0 48 21.492188 48 48s-21.492188 48-48 48-48-21.492188-48-48c.027344-26.5 21.5-47.972656 48-48zm0 0" />
    <path d="m272 296c2.121094 0 4.15625-.84375 5.65625-2.34375l32-32-11.3125-11.3125-26.34375 26.34375-10.34375-10.34375-11.3125 11.3125 16 16c1.5 1.5 3.535156 2.34375 5.65625 2.34375zm0 0" />
    <path d="m88 296v32c0 4.417969 3.582031 8 8 8h64v-16h-56v-24zm0 0" />
    <path d="m176 320h16v16h-16zm0 0" />
    <path d="m208 320h16v16h-16zm0 0" />
    <path d="m392 272v-64h-16v56h-16v16h24c4.417969 0 8-3.582031 8-8zm0 0" />
    <path d="m208 160h16v16h-16zm0 0" />
    <path d="m240 160h16v16h-16zm0 0" />
    <path d="m272 160h16v16h-16zm0 0" />
</svg>
