<svg height="512pt" viewBox="-54 0 512 512" width="512pt" xmlns="http://www.w3.org/2000/svg"><path d="m189.082031 26.832031h-39.164062c-4.140625 0-7.5 3.359375-7.5 7.5 0 4.144531 3.359375 7.5 7.5 7.5h39.164062c4.140625 0 7.5-3.355469 7.5-7.5 0-4.140625-3.359375-7.5-7.5-7.5zm0 0"/><path d="m80.800781 117.09375h23.699219c4.140625 0 7.5-3.359375 7.5-7.5 0-4.144531-3.359375-7.5-7.5-7.5h-23.699219c-4.144531 0-7.5 3.355469-7.5 7.5 0 4.140625 3.355469 7.5 7.5 7.5zm0 0"/><path d="m149.917969 387.5c-4.144531 0-7.5 3.355469-7.5 7.5s3.355469 7.5 7.5 7.5h23.164062c4.140625 0 7.5-3.355469 7.5-7.5s-3.359375-7.5-7.5-7.5zm0 0"/><path d="m80.800781 402.5h46.140625c4.140625 0 7.5-3.355469 7.5-7.5s-3.359375-7.5-7.5-7.5h-46.140625c-4.144531 0-7.5 3.355469-7.5 7.5s3.355469 7.5 7.5 7.5zm0 0"/><path d="m80.800781 375.625h11.847657c4.140624 0 7.5-3.355469 7.5-7.5s-3.359376-7.5-7.5-7.5h-11.847657c-4.144531 0-7.5 3.355469-7.5 7.5s3.355469 7.5 7.5 7.5zm0 0"/><path d="m399.117188 175.371094-60.117188-60.117188v-23.253906c0-9.648438-7.851562-17.5-17.5-17.5h-2.917969v-47c0-15.164062-12.335937-27.5-27.5-27.5h-243.164062c-15.164063 0-27.5 12.335938-27.5 27.5v47h-2.917969c-9.648438 0-17.5 7.851562-17.5 17.5v79c0 9.648438 7.851562 17.5 17.5 17.5h2.917969v17h-2.917969c-9.648438 0-17.5 7.851562-17.5 17.5v19c0 9.648438 7.851562 17.5 17.5 17.5h2.917969v8h-2.917969c-9.648438 0-17.5 7.851562-17.5 17.5v19c0 9.648438 7.851562 17.5 17.5 17.5h2.917969v52.171875c0 4.140625 3.359375 7.5 7.5 7.5s7.5-3.359375 7.5-7.5v-308.171875h268.164062v32.253906c-1.363281.769532-2.640625 1.71875-3.777343 2.855469l-74.761719 74.761719c-4.984375 4.984375-6.460938 12.410156-3.761719 18.921875 2.695312 6.507812 8.992188 10.714843 16.039062 10.714843h9.707032v18.664063c0 4.140625 3.359375 7.5 7.5 7.5 4.144531 0 7.5-3.359375 7.5-7.5v-26.164063c0-4.140624-3.355469-7.5-7.5-7.5h-17.207032c-1.304687 0-1.90625-.792968-2.183593-1.457031-.273438-.664062-.410157-1.652343.511719-2.574219l74.761718-74.757812c.601563-.605469 1.304688-.695312 1.671875-.695312.363281 0 1.066407.089843 1.667969.695312l74.761719 74.757812c.921875.921876.789062 1.910157.511719 2.574219-.277344.664063-.875 1.457031-2.179688 1.457031h-17.210938c-4.140624 0-7.5 3.359376-7.5 7.5v99.851563c0 1.304687-1.058593 2.363281-2.359374 2.363281h-95.386719c-1.300781 0-2.359375-1.0625-2.359375-2.363281v-41.027344c0-4.144531-3.359375-7.5-7.5-7.5s-7.5 3.355469-7.5 7.5v41.027344c0 9.574219 7.789062 17.363281 17.359375 17.363281h39.191406v7.082032h-39.050781c-9.648438 0-17.5 7.851562-17.5 17.5v22.355468c0 9.648438 7.851562 17.5 17.5 17.5h39.050781v5.617188h-39.050781c-9.648438 0-17.5 7.851562-17.5 17.5v8.355468c0 9.648438 7.851562 17.5 17.5 17.5h39.050781v18.367188h-268.160156v-40.171875c0-4.140625-3.359375-7.5-7.5-7.5s-7.5 3.359375-7.5 7.5v78.171875c0 15.164062 12.335937 27.5 27.5 27.5h154.863281c4.140625 0 7.5-3.355469 7.5-7.5s-3.359375-7.5-7.5-7.5h-154.863281c-6.894531 0-12.5-5.605469-12.5-12.5v-23h268.164062v23c0 6.894531-5.609375 12.5-12.5 12.5h-55.640625c-4.140625 0-7.5 3.355469-7.5 7.5s3.359375 7.5 7.5 7.5h55.640625c15.164063 0 27.5-12.335938 27.5-27.5v-56.367188h41.054688c9.648437 0 17.5-7.851562 17.5-17.5v-8.351562c0-9.648438-7.851563-17.5-17.5-17.5h-41.054688v-5.621094h41.054688c9.648437 0 17.5-7.851562 17.5-17.5v-22.351562c0-9.652344-7.851563-17.5-17.5-17.5h-41.054688v-7.085938h41.191407c9.574218 0 17.363281-7.789062 17.363281-17.359375v-92.351562h9.707031c7.046875 0 13.34375-4.207031 16.039062-10.71875 2.695313-6.511719 1.21875-13.9375-3.765624-18.921875zm-77.617188-85.871094c1.378906 0 2.5 1.121094 2.5 2.5v8.285156c-1.601562-1.515625-3.429688-2.699218-5.417969-3.5v-7.285156zm-304 84c-1.378906 0-2.5-1.121094-2.5-2.5v-79c0-1.378906 1.121094-2.5 2.5-2.5h2.917969v84zm0 71c-1.378906 0-2.5-1.121094-2.5-2.5v-19c0-1.378906 1.121094-2.5 2.5-2.5h2.917969v24zm0 62c-1.378906 0-2.5-1.121094-2.5-2.5v-19c0-1.378906 1.121094-2.5 2.5-2.5h2.917969v24zm17.917969-256v-23c0-6.894531 5.605469-12.5 12.5-12.5h243.164062c6.890625 0 12.5 5.605469 12.5 12.5v23zm326.71875 351.777344v8.355468c0 1.378907-1.125 2.5-2.5 2.5h-95.109375c-1.378906 0-2.5-1.121093-2.5-2.5v-8.355468c0-1.378906 1.121094-2.5 2.5-2.5h95.109375c1.375 0 2.5 1.121094 2.5 2.5zm0-62.972656v22.355468c0 1.378906-1.125 2.5-2.5 2.5h-95.109375c-1.378906 0-2.5-1.121094-2.5-2.5v-22.355468c0-1.378907 1.121094-2.5 2.5-2.5h95.109375c1.375 0 2.5 1.121093 2.5 2.5zm0 0"/><path d="m70.222656 308.535156c0 9.648438 7.851563 17.5 17.5 17.5h92.871094c9.648438 0 17.5-7.851562 17.5-17.5v-146.539062c0-9.648438-7.851562-17.5-17.5-17.5h-92.871094c-9.648437 0-17.5 7.851562-17.5 17.5zm110.371094 2.5h-92.871094c-1.378906 0-2.5-1.121094-2.5-2.5v-30.226562c9.800782-11.546875 23.082032-19.128906 37.75-21.695313 3.488282 1.292969 7.253906 2.003907 11.183594 2.003907 3.9375 0 7.707031-.710938 11.195312-2.007813 14.667969 2.558594 27.949219 10.136719 37.742188 21.675781v30.25c0 1.378906-1.121094 2.5-2.5 2.5zm-46.433594-67.417968c-9.5 0-17.226562-7.726563-17.226562-17.226563s7.726562-17.226563 17.226562-17.226563c9.496094 0 17.226563 7.726563 17.226563 17.226563s-7.730469 17.226563-17.226563 17.226563zm-46.4375-84.121094h92.871094c1.378906 0 2.5 1.121094 2.5 2.5v95.535156c-6.851562-5.402344-14.511719-9.597656-22.703125-12.457031 3.769531-5.273438 5.996094-11.722657 5.996094-18.683594 0-17.769531-14.457031-32.226563-32.226563-32.226563-17.769531 0-32.226562 14.457032-32.226562 32.226563 0 6.964844 2.226562 13.417969 6 18.695313-8.191406 2.859374-15.855469 7.058593-22.710938 12.464843v-95.554687c0-1.378906 1.121094-2.5 2.5-2.5zm0 0"/></svg>