<?xml version="1.0" encoding="utf-8"?>
<!-- Generator: Adobe Illustrator 21.0.0, SVG Export Plug-In . SVG Version: 6.00 Build 0)  -->
<svg version="1.1" id="Слой_1" xmlns="http://www.w3.org/2000/svg" xmlns:xlink="http://www.w3.org/1999/xlink" x="0px" y="0px"
	 viewBox="0 0 50.5 411.5" style="enable-background:new 0 0 50.5 411.5;" xml:space="preserve">
<style type="text/css">
	.st0{fill:#d6a354;}
	.st1{fill:#d6a354;}
</style>
<title>Монтажная область 2</title>
<path class="st0" d="M41.2,109.8c0.3-0.3,0.6-0.6,0.8-1c-1.6,0.3,0.6,0.1-1.6-0.4c-0.2-2.4-0.3,0.5,0.2-2c0-0.3,0-0.7,0-1l0.2,0
	c0.6-0.2,0.3,0.1,0.6-0.4l-0.8-0.3c0-0.5,0.1-1,0.2-1.4c0-1.6-1.1,0-1.4-4c0.7,0,0.6,0.4,1.2-1.8c0.4,0.1,0.2,0.1,0.5,0.3
	c0.7,0.4-0.4,0,0.5,0.3c0.1-0.7,0.3-1.4,0.5-2.1c0.4-1.7-0.1,0-0.1-1.9c-0.3,0-0.7,0.1-1,0.2c0-0.4-0.1-0.8-0.2-1.2l-0.4-0.6
	c0.7-0.2,0.5-0.2,1,0.2c0-1.3-0.4-0.6-0.9-1.1l-0.2-0.2l-0.1-0.1L40.2,91c-0.1-0.5-0.1-1-0.1-1.5c0.2-1.4,0.2,0.1,0.6-1.2l-0.4-1.4
	c0.6-0.1,0.4,0,0.8-0.2c-0.4-0.7-0.3-0.4-0.3-1.1c0-0.6,0-1.1,0.1-1.7c0.2,0.2,0.3,0.4,0.4,0.6l0.2-0.3c0-0.2,0-0.4,0-0.5
	c-0.7-0.2-0.7-0.3-0.8-1l-0.2-1.2c0-0.1,0-1,0-1s0-0.1,0-0.1l0.1-0.4c0,0,0-0.1,0-0.1l0.1-2.8c1,0.3,0.2,0.3,1.2,0.6
	c-1-1.9-1.3-1.3-1.4-2s0.1-0.5,0.4-0.8c0.5,0.4,0.5,0.2,0.6,1l0.4,0c0.1-0.7,0.2-0.4-0.1-0.9c-0.6-0.8-1.4-0.2-1.5-2.9
	c0.4-0.1,0.2,0.1,0.4-0.2l0-0.4c0.4-1.5,0.2-1.3,0.6-2c-0.8-0.4-0.5,0.1-1-0.6c0.1-0.2,0.2-0.4,0.4-0.6c0.2-0.3,0.1-0.2,0.2-0.6
	c-0.8-0.2-0.6,0-0.6-1l0.4,0c0-0.1,0-0.3,0-0.4c-0.1-0.4-0.1-0.2-0.2-0.4c-0.1-1-0.9-1.7,0.1-2.1c1-0.5-0.2,0,0.2-0.1
	c1.1-0.3-0.5,0.3,0.3,0c-0.3-0.5-0.2-0.2-0.2-1c-0.5-0.2-0.2-0.1-0.8,0c0-0.6,0-0.2,0.1-0.4c0.3-0.4,0.8-0.6,1.3-0.6l0.2-1.2
	c0.2-0.4,0.1,0.1,0-0.3s0,0.3-0.1-0.4c-0.2-1.2,0.5-0.7-0.5-2.7l-0.7,0.5l-0.1,0.1c0.1-1.4,0.3-2.8,0.6-4.2c0.1,0.2,0.1,0,0.2,0.4
	c0,0.2,0,0.4,0,0.6l0.4-0.4l0.2-0.2c0.5-1.1-0.2-2-0.2-3c0-1.5,0.4,0.4,0.4-1.4c0-0.6-0.3-0.9-0.4-1.6c0.3-0.1,0.6-0.3,0.8-0.6
	c-0.1,0.5-0.2,0.9-0.2,1.4l0.4,0c0-0.5,0.1-1.1,0.2-1.6c-1.5,0-1,0.3-2,0.6c0-0.9-0.5-3.3-0.3-4.5c0.4-1.7-0.4-0.2,0-1.8
	c0.3-1.3,0-1,0.1-2.4s0.6-1.5,0.6-3.2c-0.8-0.3,0,0.1-0.8-0.2c0.1-0.4,0-0.9-0.1-1.3c-0.5-1.2-0.8-2.5-0.7-3.7
	c0.2,0.1,1,0.8,0.7-0.5L40,28.3c0.2-0.1,0.3-0.2,0.5-0.3c0,0,0.1-0.1,0.1-0.1l0.1-0.1l0.1-0.1l0.3-1.1c0-0.6,0-0.2-0.2-0.8
	c0.6-0.2,0.1,0.1,0.6-0.4c-0.1-0.4,0.1-0.2-0.5-0.4c0,0-0.1,0-0.1,0l0.3-4.1c0,0-0.1-0.7-0.1-0.9c-0.3-0.1,0.1-0.2-0.3,0
	c-0.2,0.1,0,0-0.3,0.2c0-1,0.2-0.6-0.4-1c-0.2,0.7-0.1,0.4-0.6,0.8c0-1-0.2-1.4-0.2-2.6l0-2.8l-0.8-0.2c0.2-0.8,0-1.2,0.6-1.6
	c0,1.7,0.4,0.9,0.4,2.6l0.2-1.6c0.7-0.4,0.5-0.7,0.1-2.2c-0.2-0.7-0.2-0.2-0.3-1.2L39.6,5c0.5,0.3,0.2,0.2,0.8,0.4
	c0,1.4,0.3,1.4-0.6,1.2l0,1.8c1.1,0.4,0.1,0.7,1,1.4c0.1-1.8,0.2-3.6,0.1-5.4l-0.1-2.3c0-0.9,0-1.8,0.1-2.7c-0.6,0.3-0.5,0-1.6,0
	l-0.2,4l-0.4-0.7c-0.4-0.5,0.1-0.1-0.2-0.1l-0.1,0c-0.1-1.1-0.2-2.1-0.2-3.2l-38.3,0l-0.2,412.6l38.3,0c-0.2-0.3-0.2-0.7,0-1
	c0.3-0.6,0.3-0.4,0.8,0c0-1.1-0.1-1.4,0.8-1.6c-0.8,1.4,0,0.6,0,2.4l0.6,0c0.2-1.6,0.8,0.6,0.8-2c-1.2-0.5-0.4-1.2-1.4-0.8
	c0.2-0.6,0.3-0.5,0.3-0.8c0-0.6,0,0.3-0.3-0.5c0.2-0.7,0.3-1.5,0.2-2.2c1.1-0.3,0.5-0.6,1.2-2c0.6-0.2,0.1,0.1,0.6-0.4
	c-0.1-0.5,0-0.2-0.5-0.7l-0.1-0.1l-0.7-0.6c-0.9-1.2,0.4-2.9-0.1-4c0.6,0.2,0.6,0.4,0.6,1.2l0.4,0c0.1-1.4,0.2,0.2,0.6-1.2
	c-0.5-0.2,0.1,0.1-0.8,0.2l-0.2-1.2c1.4,0.1,1.3,0.7,1.8-1.3l0-0.1l0.3-2.6c0,0-0.2-0.9-0.3-0.9l-0.5-0.7c0-0.1-0.5-0.7-0.5-0.7
	c-0.7-1.3-1-2.8-0.9-4.3c0-0.6,0-1.3-0.1-1.9l0.6,0c-0.3-0.4-0.4-0.4-0.5-0.9c-0.1-0.5,0.2-0.6,0.3-0.9c0.6-0.5,0.3,0.1,0.4-0.8
	c-0.5-0.7-0.1-0.3-1.2-0.6c-0.2-2.4-0.3,0.4,0.2-2c0-0.3,0-0.7,0-1c0.4-0.2,0.4,0.1,0.8-0.4l-0.8-0.2c0-2.2,0.7-1.4-0.4-2.6
	c-0.5-0.8-0.8-1.8-0.8-2.8c0.7,0,0.6,0.4,1.2-1.8c0.7,0.2,0.3,0.3,1,0.6c0.1-0.7,0.3-1.4,0.5-2.1c0.4-1.7-0.1,0-0.1-1.9
	c-0.3,0-0.7,0.1-1,0.2c0-0.4-0.1-0.8-0.2-1.2l-0.4,0c0.1-1.1,0.4-0.8,1-0.4c0-0.4,0.1-0.3-0.1-0.7c-0.2-0.3-0.2-0.1-0.4-0.2
	c-0.2-0.1-0.3,0-0.6-0.5c-0.8-1.5,0.4-2.9,0.4-3l-0.4-1.4c0.6-0.1,0.4,0,0.8-0.2l-0.3-0.6c0,0,0-0.1,0-0.1c-0.1-0.7,0-1.4,0.1-2
	c0.2,0.2,0.3,0.4,0.4,0.6c0,0,0.1-0.1,0.1-0.1c0,0,0.1-0.1,0.1-0.1c0-0.2,0-0.4,0-0.5c-1.1-0.3-0.6-0.7-0.8-1.7l0.4-3.8
	c0.1-0.6,0,0.6,0-0.2c0-0.2,0-0.1,0-0.3c0-0.2,0,0.1-0.2-0.5c1,0.3,0.2,0.3,1.2,0.6c-0.2-0.5-0.6-1-1-1.4c-0.4-0.4-0.3-0.1-0.4-0.5
	s0.1-0.6,0.4-0.8c0.5,0.4,0.5,0.2,0.6,1l0.4,0c0.4-2-1.5-0.2-1.6-3.8c0.3-0.1,0.3,0.1,0.5-0.3l-0.1-0.3l0.2-0.7c0,0,0-0.1,0-0.1
	c0.1-1-0.1-0.5,0.4-1.2c-0.8-0.4-0.5,0.1-1-0.6c0.1-0.2,0.2-0.4,0.4-0.6c0.1-0.2,0.2-0.4,0.2-0.6c-0.8-0.2-0.6,0-0.6-1l0.2-0.8
	c-0.1-1-0.9-1.7,0.1-2.1c1-0.5-0.2,0,0.2-0.1c1.1-0.2-0.5,0.3,0.3,0c-0.3-0.5-0.2-0.2-0.2-1c-0.5-0.2-0.2-0.1-0.8,0c0.1-1-0.4,0,1-1
	c0,0.5,0.1,0.3,0.1,0.5c0,0.1,0.1,0.2,0.1,0.3c0.4,1.4-0.2,0.7,0.6,1.3c0.2-0.7,0.2-1.3,0.2-2c-0.5-0.2-0.1-0.2-0.6,0l0-0.7
	c0,0,0-0.1,0-0.1l0.2-0.4c0.2-0.4,0,0.2-0.1-0.7c-0.2-1.2,0.5-0.7-0.5-2.7c-0.5,0.1-0.5,0.3-0.8,0.6c0.1-1.4,0.3-2.8,0.6-4.2
	c0.1,0.2,0.1,0,0.2,0.4c0,0.2,0,0.4,0,0.6c0,0,0.4-0.4,0.4-0.4l0.2-0.2c0.5-1.1-0.2-2-0.2-3c0-1.5,0.4,0.4,0.3-1.4
	c0-0.6-0.3-0.9-0.4-1.6l0.8-0.6c-0.1,0.5-0.2,0.9-0.2,1.4l0.4,0c0-0.5,0.1-1.1,0.2-1.6c-1.5,0-1,0.3-2,0.6c0-0.5,0-1.1-0.2-1.6
	c-0.1-1.1-0.1-2.3,0-3.4c0-0.9-0.1,0-0.2-0.7c0-0.4,0-0.3,0.1-0.6c0.3-1.3,0-1,0.1-2.4c0-1.4,0.6-1.5,0.6-3.2
	c-0.8-0.3,0,0.1-0.8-0.2c0.1-0.4,0-0.9-0.1-1.3l-0.1-0.3l-0.1-0.1c-0.4-1.1-0.5-2.2-0.5-3.3c0.6,0.1,0.3,0.2,0.8,0
	c-0.1-0.9-0.4-0.4-0.4-1.1l-0.2-1.1c0.4-0.2,0.6-0.5,0.7-0.9c0,0,0-0.1,0.1-0.1c0.4-0.9,0.2-0.7,0-1.6c0.6-0.2,0.1,0.1,0.6-0.4
	c-0.2-0.6,0.1,0-0.2-0.3l-0.4-0.1c0-0.1-0.1-0.7-0.1-0.7l0-1.8l0.5,0l0.1,0l0-0.8c0,0-0.1,0-0.1,0c-0.1,0-0.1,0-0.2-0.1
	c-0.2-0.1,0,0.1-0.3-0.1c0.7-1,0.2-0.2,0.2-1.6c-0.3-0.1,0.1-0.2-0.3,0c-0.4,0.2,0,0-0.3,0.2c0-0.8,0-0.5-0.2-1
	c-0.6,0.5-0.2,0.3-0.8,0.8c0.2-1.1-0.6-2.7-0.1-4.3l0.3-1.5c0.7,0.1,0.1,0,0.5,0.1c0.3,0.1-0.2,0,0.5,0.3c0-0.7,0-0.6,0.4-1
	c0,1.1-0.4,4.9,0.4,5.8l-0.4-11.9c-0.1-0.8,0-1.8,0-2.6c0-0.3-0.1-0.8-0.1-1l0.1-3.4c0,0,0.1,0.1,0.1,0.1l0.5,0.5
	c0.1-0.9,0.1-1.7,0.1-2.6c-0.2-0.9-0.3-1.9-0.2-2.8c-0.5,0.2-0.1,0.2-0.6,0c0.3,1.4,0.5,2.8,0.4,4.2l0,0.2c0,0,0,0,0,0
	c-0.3,0-0.8-0.9-0.9-1.2l-0.7-2.6c-0.1-0.6-0.1-1.2,0-1.8c-0.5-0.1,0.3-0.2-0.2,0.1c-0.5,0.2,0.2,0.2-0.2,0.1
	c-0.3-0.6-0.2-0.4-0.2-1.2c0.1-0.1,0.2-0.1,0.3-0.1l0.1,0l0.1,0l0.1,0c-0.2-0.8-0.3-0.3-0.3-0.9c0-0.3,0.2-0.8,0.3-1.2
	c0.2-1.2-0.1-0.5-0.2-1.6c0-0.3,0-0.5,0-0.8l1,0c-0.6-0.9-1-0.8-1.2-2.8c0.7-0.1,0.7-0.1,0.8-0.8c-0.8,0.2-1.2,1.1-1.4-1.2
	c0.7-0.4,0.5-0.6,1.4-0.8l0,1.6c0.9-0.2,0.8-0.8,0.5-1.5c0-0.1,0-0.1-0.1-0.2c-0.1-0.3-0.1-0.6-0.1-0.9c-1,0.5-0.8,0.2-2.2,0.2
	c0-1.3-1.1-2.4-0.3-3.3l0.7-0.3c0.1-1.3,0-2.6-0.2-3.8c0.8,0.2,0.6,0.4,1.2,0.8c0.2-0.9,0.3-1.4-1-1.4c-0.1-1-0.2-0.5-0.1-1.5
	c0.1-0.6,0.5-1.4,0.3-2c-0.3-1,0.2,0.4-0.1-0.3c-0.1-0.1-0.1-0.3-0.2-0.4c-0.2-0.5-0.3-1-0.4-1.4c0,0,0,0.1-0.1,0.1
	c-0.3,0.1,0.1,0-0.1,0.3s0.1,0.2-0.4,0.4c-0.2-0.3-0.4-0.7-0.5-1.1c-0.3-1.2,0.3-1-0.7-1.1l-0.2-3.6c0.3-1.4,0.3-0.6,0.5-0.7
	c0.5-0.3,0.4,0,1.1-0.3c-1-1.5-0.3-0.6-0.2-2.6c0.1-2,0.2-1.2,0.4-1.1l0.1,0.1l0.7,0.3c-0.1-1.5-0.1,0.2-0.3-0.6l0.2-0.7
	c0-0.2,0-0.5,0-0.7l-0.1-0.2c-0.2-0.3-0.2,0.5-0.2-0.5l-0.3,0.7l-0.1,0.1c-0.1-1-0.2-0.5-0.1-1.7c0.2-2.1-0.7-1.4,0.1-4.9
	c0.2-0.4,0.2-0.9,0.2-1.4c0.1-0.9,0.2-0.7,0.4-1.4c1.1,0.1,1,0.6,1.2,1.4c0.3,0.9,0.5,1.9,0.4,2.8c0.1-0.2,0.1,0,0.2-0.5
	c0.1-0.5,0-0.1,0-0.6c-0.1-1.5,0.1-3-0.3-3.8c-0.4-0.8-0.1,0.2-0.3-0.7l-0.8,0l0,0.8c-0.6-0.5-0.1,0-0.3-0.5c-0.5-1.3-0.3-6-0.3-7.6
	l-0.6,0c0-1.1-0.1-2.2-0.4-3.2c1.4,0.4,0,0.8,1,2.2c0-0.5,0-1,0-1.5c0.1-0.5-0.1-0.5,0.5-0.7c0.3-0.5,0.5-0.5,0.2-1
	c-0.2,0-0.4-0.1-0.6-0.2l0.1-0.9c0.4-1.8-0.8-0.8,0.4-4.4c0.2-0.7,0.1,0.1,0.3-0.7l-0.4-0.6c0.3-0.4,0.4-0.3,0.4-1
	c0-0.5-0.1-0.5-0.2-1.2c-0.1-1.8,0-1.5,0.6-2.4c-1,0.2-0.3,0.1-0.6,0l-0.1-3.7c0-1.4,0.4,0.3,0.2-1.1s-1-0.2-0.2-1.9
	c0.7-1.5-0.3-0.4-0.4-2.2c1.5,0,1.3,1.1,2.6,1.2c-0.1-0.4-1.8-2.6-2.4-2.8c0-1.6,0.2-0.3-0.1-1.9c-0.2-0.9,0.3-0.8,0.7-1.5
	c-0.5-0.6-0.9-1.2-1.1-1.9c-0.3-1.3,0.5-2-0.9-2.1c0.4-1,0.1,0.2,0.4-0.8c-0.9-0.4-0.8,0.1-0.8-1.2c0.4,0.3,1,0.8,1.6,0.2
	c0.3-0.3,0.3-0.5,0.1-0.7c-0.4-0.5,0.1-0.1-0.3,0l-0.4,0.2c0.2-0.9,0.8-1.2,0.9-1.7c0.1-0.8,0-1.7-0.1-2.5c0,0,0.1,0,0.1,0
	c0,0,0.1,0,0.1,0c0.3,0-0.3,0.2,0.3,0c0.2-0.1,0.3,0,0.4-0.7c-0.6-0.3-0.7-0.1-1.3-0.3c-0.4-0.2-0.5-0.4-0.9-0.7
	c0.4-0.4,0.6-1,0.6-1.6l0.3,0.3c0.3,0.3,0.1,0.1,0.3,0.3c-0.2-1,0-0.6,0-1.8c-0.3,0-0.7,0.1-1,0.2c0-1.5-0.3-1.1-0.4-2.2
	c0.8,0,0.7-0.1,1.2,0.2c0-1.1,0.2-1.7-0.4-2.2c0,0.5,0.1,0.9,0.2,1.4c-1.3-0.4-0.2-1-0.7-2.7c-0.4-1-0.4-2.1-0.1-3.1
	c1.2-0.3,0.5-0.1,1.6,0c-0.1-0.3-0.2-0.6-0.4-0.9c-0.3-0.8-0.1-0.7-0.1-0.9c-0.1-1.4-0.3-0.4-1.1-0.7c0.1-1,0.2-0.3,0.8-1.2
	c0.6-1-0.1-0.4,1-1c-0.3,1.2,0,0.4,0.2,1.6c0.1,0.7,0.1,1.5,0,2.2c0,1.5,0,3,0,4.4l0.2,0c0-1.4,0.3-1.3,0.4-2.4l0.2-4.2
	c0.1-0.8,0.5-1.2,0-2.1c-0.1-0.2,0,0.6-0.2-0.4c0-0.3,0-0.5,0-0.8c0.1,0,0.3,0.1,0.4,0.2c0.5,0.1,0,0.2,0.4,0
	c-0.3-0.5-0.2-0.2-0.2-1c0.6-0.5,0-0.7-0.1-0.9c-0.4-0.6-0.3,0.1-0.2-0.9s0.3-6-0.3-6.4l-0.1,0l-0.1,0l-0.1-0.1
	c0-0.1-0.1-0.1-0.1-0.2l-0.1-0.3c-0.1,2-0.4,2.6-0.4,6c-0.7-0.2-1.2-0.9-1.2-1.6c0-1.2,0.7-0.2,0.2-2.2c1.2,0,0.6,0.1,0.8-0.4
	c-0.5-0.2-0.5-0.1-1,0.2l-0.1-3c0-0.4,0-0.8,0-1.1c0-0.1-0.1,0,0-0.5s0.1-0.3,0.1-0.4c0.2-0.8,0-0.4,0-0.9c-0.1-0.3,0-0.6,0.2-0.8
	c0.4-0.5-0.1-0.4,0.7,0.1c0-1.1-0.2-1.4,0.8-1.6c-0.4,0.8-0.4,0.5-0.2,1.2c0,0,0,0.1,0,0.2l0.1,0.5c0.2,0.6-0.1,0.4,0.4,0.6
	c0.6,0.2-0.2,0.2,0.2-0.2c1-1.1,0.8-0.4,0.8-1.8c-1.2-0.5-0.4-1.2-1.4-0.8c0.2-0.6,0.3-0.5,0.3-0.7c0-0.6,0,0.3-0.3-0.5
	c0.2-0.7,0.3-1.5,0.2-2.2c0.8-0.2,1-0.9,1.1-2c0,0,0.1,0,0.1,0l0.7-0.6l-1.3-1.2c-0.8-1,0.1-2.8,0.1-3.8c0.6,0.4,0.4,0,0.4,1l0.4,0
	c0.2-1.4,0.2,0.2,0.6-1.2c-0.5-0.2,0.1,0.1-0.8,0.2l-0.2-1.2c0.8,0,1.6,0.9,2-2c0.5-4.2-0.5-2.3-1.3-4.6c0,0-0.1-0.4-0.1-0.5
	c-1.1-3.5-0.4-1.5-0.7-5.3l0.6,0c-0.3-0.4-0.4-0.4-0.5-0.9c0-0.2,0-0.1,0-0.4c0-0.1,0.1-0.2,0.1-0.2L41.2,109.8z"/>
<path class="st1" d="M38.9,208.5c0,0.8-0.1,0.9-0.2,1.8c-0.1,2.3-0.3-0.4-0.4,1.4l0.4,0c0.1,3-0.5-0.1,0.2,3.4
	c0.1,0.6,0.3,1.2,0.3,1.8c0,0.8-0.6,1,0.2,1.6c0.1-0.9,0.3-0.7,0.2-1.8c0-0.6-0.1-1.1-0.2-1.7l-0.4,0c0.2-0.7,0.2-0.3,0.4-0.9
	c0.1-0.4,0.1-0.8,0-1.1c0.3-0.2,0.3,0,0.4-0.5l0-0.1l0-0.9c-0.1,0-0.1,0.1-0.8,0L38.9,208.5z"/>
<path class="st1" d="M45.5,25.3c-0.5,1.1-0.4,2.5,0.4,3.5l0.4,0.6c0.2-0.8,0.3-1.6,0.3-2.5C46.6,25.9,46.1,25.7,45.5,25.3z"/>
<path class="st1" d="M45.3,298c-0.6,1.3-0.4,1.3,0.1,2.7l0.7,1.3c0.2-0.8,0.3-1.6,0.4-2.4C46.5,298.6,46,298.4,45.3,298z"/>
<path class="st1" d="M45.9,41.2c-1.5,0.4,0.3,1-1.2,1.4l0,0.8l0.8-0.1C46.5,43,45.7,42.1,45.9,41.2z"/>
<path class="st1" d="M45.7,313.9c-1.5,0.4,0.3,1-1.2,1.4l0,0.8c0.3-0.1,1.4,0,1.4-0.8S45.5,315,45.7,313.9z"/>
<path class="st1" d="M39.6,164c0,0.9-0.2,0.7-0.2,1.4c0.1,0.5,0.1,1.1,0.2,1.6l0.4,0C40.2,164.6,40.5,164.5,39.6,164z"/>
<path class="st1" d="M41.8,61.6c-0.4,1.3,0-0.7-0.4,0.6c0.5,0.2,0.3-0.1,0.4,0.4c0,0.1,0,0.9,0,1l0.4,0c0.2-0.6,0.2-1.3,0.2-2
	C41.9,61.4,42.3,61.4,41.8,61.6z"/>
<path class="st1" d="M43.7,15.5c-0.3,0.5-0.2,0.7-0.2,1.6c0,0.6,0.1,0.4,0.4,0.6C44.1,17.3,44.4,15.6,43.7,15.5z"/>
<path class="st1" d="M43.5,288.2c-0.3,0.5-0.2,0.7-0.2,1.6c0,0.6,0.1,0.4,0.4,0.6C44,290,44.2,288.3,43.5,288.2z"/>
<path class="st1" d="M46.5,304.8l-0.2,0l-0.2,1.6c0.8,0.3,0.3-0.1,0.2,1.2l0.4,0C46.7,306.4,46.5,306,46.5,304.8z"/>
<path class="st1" d="M46.7,32.1l-0.2,0l-0.2,1.6c0.8,0.3,0.3-0.1,0.2,1.2l0.4,0C46.9,33.6,46.7,33.3,46.7,32.1z"/>
<path class="st1" d="M46.4,307.8l0,2.4c0.6-0.4,0.4,0,0.4-1c0-0.4,0-1,0-1.4L46.4,307.8z"/>
<path class="st1" d="M46.5,35.1l0,2.4c0.6-0.4,0.4,0,0.4-1c0-0.4,0-1,0-1.4L46.5,35.1z"/>
<path class="st1" d="M46,135.7c1-0.7,1-1.1,1.6-2.2c-0.7,0.2-0.6,0.2-0.9,0.9C46.4,134.8,46.2,135.2,46,135.7z"/>
<path class="st1" d="M45.9,408.4c1-0.7,1-1.1,1.6-2.2c-0.7,0.2-0.6,0.2-0.9,0.9C46.3,407.5,46.1,407.9,45.9,408.4z"/>
<path class="st1" d="M37.9,224.8l0.4,0l0.4,0.2c0.3-1.1,0.6-0.9-0.4-1.4C38.2,224.2,38.1,224.1,37.9,224.8z"/>
<path class="st1" d="M42.4,307.6c-0.2,0.9-0.5,1.2,0.4,1.4C42.8,308.6,43.4,307.7,42.4,307.6z"/>
<path class="st1" d="M42.4,34.9c-0.2,0.9-0.5,1.2,0.4,1.4C42.9,35.9,43.4,35,42.4,34.9z"/>
<path class="st1" d="M43.5,326.1l-0.2,2l0.4,0c0-1.1,0.2-1.1,0.2-2L43.5,326.1z"/>
<path class="st1" d="M44.7,322.5c0,0,0.1-0.1,0.1-0.1l0.4-0.6c0.3-0.5,0.2-1.1-0.2-1.5C44.9,321,44.8,321.7,44.7,322.5z"/>
<path class="st1" d="M44.8,49.8c0,0,0.1-0.1,0.1-0.1s0.1-0.1,0.1-0.1l0.4-0.8c0.2-1-0.2-1.1-0.2-1.2C45,48.3,44.9,49.1,44.8,49.8z"
	/>
<path class="st1" d="M46.3,311.9c0,2.8-0.4,2.9,0.4,3.8L46.3,311.9z"/>
<path class="st1" d="M46.5,39.1c0,1.5-0.2,2.9,0.1,3.5c0.3,0.5,0.1,0.1,0.3,0.3L46.5,39.1z"/>
<path class="st1" d="M40.3,250.1c0,1.2,0.2,1.5,0.2,2.6l0.2,0C40.7,251.6,40.9,250.5,40.3,250.1z"/>
<path class="st1" d="M41.2,251.5c0,0.9,0.2,1.1,0.2,2.2l0.2,0l0-2.2L41.2,251.5z"/>
<path class="st1" d="M36.9,238.2c0,0.8-0.1,0.8,0.2,1.4c0.3-0.2,0.4,0,0.4-0.6C37.5,238.4,37.3,238.4,36.9,238.2z"/>
<path class="st1" d="M40.2,234.8c0,0.8-0.2,0.4-0.2,1.4c0,0.6,0.1,0.4,0.4,0.6l0-2L40.2,234.8z"/>
<path class="st1" d="M45.3,44.2c-0.1,0.4-0.2,0.8-0.2,1.2c0.6-0.4,0.6-0.3,0.6-1.2L45.3,44.2z"/>
<path class="st1" d="M45.1,316.9c-0.1,0.4-0.2,0.8-0.2,1.2c0.6-0.4,0.6-0.3,0.6-1.2L45.1,316.9z"/>
<path class="st1" d="M44.3,312.3c-0.1,0.4,0.1,0.9,0.4,1.2c0.2-0.1,0.4-0.2,0.6-0.2L44.3,312.3z"/>
<path class="st1" d="M44.5,39.6c-0.1,0.4,0.1,0.9,0.4,1.2c0.2-0.1,0.4-0.2,0.6-0.2L44.5,39.6z"/>
<path class="st1" d="M42.8,50.6l0,1.6c0.1-0.1,0.1,0,0.3-0.3C43.3,51.4,43.4,50.7,42.8,50.6z"/>
<path class="st1" d="M42.7,323.3l0,1.6c0.1-0.2,0.2,0,0.3-0.3C43.1,324.3,43.3,323.4,42.7,323.3z"/>
<path class="st1" d="M39.4,203.7c0,1.3-0.4,1.3,0.2,1.8l0-1.8L39.4,203.7z"/>
<polygon class="st1" points="44.7,322.5 44.3,322.3 44.3,323.5 44.7,323.5 "/>
<polygon class="st1" points="44.8,49.8 44.5,49.6 44.4,50.8 44.8,50.8 "/>
<path class="st1" d="M39.6,140.1c0,1-0.2,0.8,0.4,1.2l0-1.2L39.6,140.1z"/>
<path class="st1" d="M41.5,399.1c0.1,0.7,0.1,0.7,0.8,0.8C42.1,399.3,42.2,399.3,41.5,399.1z"/>
<path class="st1" d="M41.6,126.4c0.1,0.7,0.1,0.7,0.8,0.8C42.2,126.6,42.3,126.6,41.6,126.4z"/>
<path class="st1" d="M45.1,310.3c0.1,0.8-0.1,0.6,0.6,0.8l0-0.8L45.1,310.3z"/>
<path class="st1" d="M45.3,37.5c0.1,0.8-0.1,0.6,0.6,0.8l0-0.8L45.3,37.5z"/>
<path class="st1" d="M42.8,58.8c0,0.6,0.1,0.4,0.4,0.6l0-1.4C42.8,58.5,42.8,58.4,42.8,58.8z"/>
<path class="st1" d="M42.8,331.5c0,0.6,0.1,0.4,0.4,0.6l0-1.4c-0.1,0.2-0.1,0.1-0.3,0.3C42.8,331.4,42.8,330.8,42.8,331.5z"/>
<path class="st1" d="M41.6,343.3c0.1,0.5,0.1,0.5,0.2,1l0.8,0L41.6,343.3z"/>
<path class="st1" d="M41.7,70.6c0.1,0.5,0.1,0.5,0.2,1.1l0.8,0L41.7,70.6z"/>
<path class="st1" d="M40.9,406.4c-0.6,0.5-0.6,0.5-0.4,1.2l0.3-0.4l0.1-0.1C40.9,406.9,41.1,406.6,40.9,406.4z"/>
<polygon class="st1" points="44.1,353.4 44.1,354.2 44.5,354.2 44.7,353.4 "/>
<path class="st1" d="M45,70.5c0,0-0.2,0.4-0.2,0.4c0,0.6,0.1,0.4,0.4,0.6C45.3,71,45.6,70.6,45,70.5z"/>
<path class="st1" d="M44.9,343.2c-0.1,0.1-0.1,0.3-0.2,0.4c0,0.6,0.1,0.4,0.4,0.6C45.2,343.7,45.5,343.3,44.9,343.2z"/>
<rect x="44.6" y="34.9" class="st1" width="0.4" height="1"/>
<rect x="44.6" y="307.6" class="st1" width="0.4" height="1"/>
<rect x="38.2" y="224.7" class="st1" width="0.2" height="2"/>
<rect x="43.4" y="54.4" class="st1" width="0.4" height="1"/>
<path class="st1" d="M41,133.7c-0.6,0.5-0.6,0.5-0.4,1.2c0,0,0.1-0.1,0.1-0.1l0.4-0.7C41.1,133.9,41.1,133.8,41,133.7z"/>
<polygon class="st1" points="41.5,258.7 41.3,259.9 41.7,259.9 41.7,258.7 "/>
<path class="st1" d="M41.6,81.7c0.1,0.8-0.1,0.6,0.6,0.8l0-0.8C41.8,81.9,42,81.9,41.6,81.7z"/>
<path class="st1" d="M45.7,316.3c0.6,0.8,0.6-0.1,0.6,1l0.2,0l0-1L45.7,316.3z"/>
<path class="st1" d="M45.8,43.6c0.6,0.8,0.6-0.1,0.6,1l0.2,0l0-1L45.8,43.6z"/>
<path class="st1" d="M39.8,213.5l0.1,1.1c0.1,0.3,0.1,0.2,0.3,0.3C40.2,214.3,40.3,213.6,39.8,213.5z"/>
<rect x="41.7" y="285.4" class="st1" width="0.2" height="1.8"/>
<path class="st1" d="M39.8,99.7l0,1.2C39.9,100.8,40.8,99.9,39.8,99.7z"/>
<path class="st1" d="M43.3,317.5l0,1l0.4,0C43.7,317.9,43.8,317.6,43.3,317.5z"/>
<path class="st1" d="M43.4,44.8l0,1l0.4,0C43.8,45.2,43.9,44.8,43.4,44.8z"/>
<path class="st1" d="M44.8,231.8l0,1c0.6-0.4,0.4,0,0.4-1L44.8,231.8z"/>
<path class="st1" d="M38.4,114c0,0.4-0.1,0.3,0.4,0.8l0-1.2C38.6,113.7,38.4,113.7,38.4,114z"/>
<path class="st1" d="M38.3,386.7c0,0.4-0.1,0.3,0.4,0.8l0-1.2C38.5,386.4,38.3,386.4,38.3,386.7z"/>
<path class="st1" d="M41.5,354.4c0.1,0.9-0.2,0.3,0.4,0.8c0.2-0.2,0.2-0.5,0.2-0.8C41.7,354.6,41.9,354.6,41.5,354.4z"/>
<rect x="46.5" y="45.2" class="st1" width="0.2" height="1.6"/>
<rect x="46.4" y="317.9" class="st1" width="0.2" height="1.6"/>
<rect x="44.3" y="64" class="st1" width="0.4" height="0.8"/>
<rect x="44.1" y="336.7" class="st1" width="0.4" height="0.8"/>
<rect x="43.6" y="53.4" class="st1" width="0.4" height="0.8"/>
<rect x="39.7" y="235.5" transform="matrix(1 -4.279472e-03 4.279472e-03 1 -1.009 0.1729)" class="st1" width="0.4" height="0.8"/>
<path class="st1" d="M44.5,327.7l0,1c0.2-0.1,0.4-0.1,0.4-0.4C44.9,328,44.9,327.8,44.5,327.7z"/>
<path class="st1" d="M39.7,372.5l0,1c0.2-0.1,0.4-0.1,0.4-0.4C40.1,372.8,40,372.5,39.7,372.5z"/>
<path class="st1" d="M44.6,55l0,1c0.2-0.1,0.4-0.1,0.4-0.4C45,55.3,44.9,55.1,44.6,55z"/>
<path class="st1" d="M45.7,334.3l0,1c0.1-0.1,0.2,0,0.3-0.3c0.2-0.5,0.1-0.1,0.1-0.7L45.7,334.3z"/>
<path class="st1" d="M45.8,61.6l0,1c0.1-0.1,0.2,0,0.3-0.3c0.2-0.5,0.1-0.1,0.1-0.7L45.8,61.6z"/>
<path class="st1" d="M40.6,28.3l0,1c0.1-0.1,0.1,0,0.3-0.3c0.2-0.5,0.1-0.1,0.1-0.7L40.6,28.3z"/>
<path class="st1" d="M38.4,233.6l0.4,0l0-1c-0.1,0.1-0.2,0-0.3,0.3C38.3,233.4,38.4,233,38.4,233.6z"/>
<path class="st1" d="M44.2,81.5c0.5-0.2,0.4,0,0.6-0.8C44,81.2,44.3,80.5,44.2,81.5z"/>
<rect x="39.4" y="141.9" class="st1" width="0.2" height="1.4"/>
<rect x="41.8" y="214" transform="matrix(1 -4.279472e-03 4.279472e-03 1 -0.9185 0.1811)" class="st1" width="0.2" height="1.4"/>
<path class="st1" d="M40.5,301l0,1l0.2,0c0-0.3,0.1-0.7,0.2-1L40.5,301z"/>
<path class="st1" d="M41.6,98.3l0,0.8l0.4,0C42,98.7,42,98.4,41.6,98.3z"/>
<path class="st1" d="M48.6,292c0.1,0.9-0.2,0.4,0.4,0.8l0-0.8L48.6,292z"/>
<path class="st1" d="M48.7,19.3c0.1,0.9-0.2,0.3,0.4,0.8l0-0.8L48.7,19.3z"/>
<path class="st1" d="M44.1,353l0.4,0l0-0.8C43.9,352.6,44.2,352.1,44.1,353z"/>
<path class="st1" d="M44.2,80.3l0.4,0l0-0.8C44,79.9,44.3,79.4,44.2,80.3z"/>
<path class="st1" d="M44.4,264.7l0,0.6c0.7-0.2,0.1,0.3,0.6-0.6L44.4,264.7z"/>
<path class="st1" d="M41.9,371.9c-0.1-0.9,0.2-0.4-0.4-0.8C41.5,372.3,41.4,371.6,41.9,371.9z"/>
<rect x="43" y="57" class="st1" width="0.4" height="0.6"/>
<rect x="44.7" y="367.8" class="st1" width="0.4" height="0.6"/>
<rect x="43" y="329.7" class="st1" width="0.4" height="0.6"/>
<rect x="38.3" y="234.4" class="st1" width="0.2" height="1.2"/>
<path class="st1" d="M41.8,78.7c-0.1,0.7-0.4,0.6,0.4,0.8c-0.1-0.1-0.1-0.4-0.2-0.4C41.8,78.7,42,78.9,41.8,78.7z"/>
<path class="st1" d="M41.7,351.4c-0.1,0.7-0.4,0.6,0.4,0.8c-0.1-0.1-0.1-0.3-0.2-0.4C41.7,351.4,41.9,351.6,41.7,351.4z"/>
<path class="st1" d="M44,68.6c0.6-0.4,0.3,0.1,0.4-0.8C43.8,68.3,44.1,67.7,44,68.6z"/>
<path class="st1" d="M42.8,240.4c0.6-0.5,0.3,0.1,0.4-0.8C42.5,240.1,42.8,239.5,42.8,240.4z"/>
<path class="st1" d="M43.9,341.4c0.6-0.5,0.3,0.1,0.4-0.8C43.7,341,44,340.4,43.9,341.4z"/>
<path class="st1" d="M42.7,34.5l0-0.8C42,34.2,42.1,34.1,42.7,34.5z"/>
<path class="st1" d="M42.5,307.2l0-0.8C41.9,306.8,41.9,306.8,42.5,307.2z"/>
<path class="st1" d="M41.3,352.6c0,0.3,0,0.2,0.1,0.5c0.3,0.7,0.2,0.3,0.3,0.5C41.7,353,41.7,352.8,41.3,352.6z"/>
<rect x="38.8" y="217.5" class="st1" width="0.2" height="1"/>
<path class="st1" d="M40.4,98.7l0,0.6l0.4,0C40.7,99,40.8,98.8,40.4,98.7z"/>
<path class="st1" d="M40.3,371.5l0,0.6l0.4,0C40.6,371.7,40.7,371.5,40.3,371.5z"/>
<path class="st1" d="M44.8,95.1l0,0.6l0.4,0C45.1,95.4,45.2,95.2,44.8,95.1z"/>
<path class="st1" d="M40.2,229.2c0.6-0.2,0.4,0,0.6-0.6C39.9,229,40.4,228.5,40.2,229.2z"/>
<path class="st1" d="M39.2,207.5l0.4,0l0-0.8c-0.1,0.2,0-0.1-0.2,0.4C39.3,207.1,39.2,207.4,39.2,207.5z"/>
<path class="st1" d="M43.8,52.4c0.1,0.6,0,0.3,0.4,0.6l0-0.6L43.8,52.4z"/>
<path class="st1" d="M39.4,208.5c0.1,0.6,0,0.3,0.4,0.6l0-0.6L39.4,208.5z"/>
<path class="st1" d="M43.7,325.1c0.1,0.6,0,0.3,0.4,0.6l0-0.6L43.7,325.1z"/>
<path class="st1" d="M38.2,120.8l0,0.6c0.4-0.3,0.2,0,0.4-0.6L38.2,120.8z"/>
<path class="st1" d="M38.1,393.5l0,0.6c0.4-0.3,0.2,0,0.4-0.6L38.1,393.5z"/>
<path class="st1" d="M41.4,80.1c0.1,0.4-0.1,0,0.1,0.5c0.1,0.1,0.2,0.2,0.3,0.3C41.8,80.4,41.8,80.2,41.4,80.1z"/>
<path class="st1" d="M40.5,379.9c0.1,0.4-0.1,0,0.1,0.5c0.1,0.1,0.2,0.2,0.3,0.3C40.9,380.2,40.9,380,40.5,379.9z"/>
<path class="st1" d="M40.6,107.2c0.1,0.4-0.1,0,0.1,0.5c0.1,0.1,0.2,0.2,0.3,0.3C41,107.5,41,107.3,40.6,107.2z"/>
<rect x="48.3" y="4" class="st1" width="0.2" height="0.8"/>
<rect x="40.4" y="287.4" class="st1" width="0.2" height="0.8"/>
<rect x="48.2" y="276.7" class="st1" width="0.2" height="0.8"/>
<rect x="40.5" y="14.6" class="st1" width="0.2" height="0.8"/>
<rect x="40.2" y="243.8" class="st1" width="0.2" height="0.8"/>
<rect x="45.5" y="321.3" class="st1" width="0.2" height="0.8"/>
<rect x="40.7" y="336.7" class="st1" width="0.2" height="0.8"/>
<rect x="40.8" y="64" class="st1" width="0.2" height="0.8"/>
<rect x="45.7" y="48.6" class="st1" width="0.2" height="0.8"/>
<rect x="39.6" y="238.6" class="st1" width="0.2" height="0.8"/>
<path class="st1" d="M42.4,130.3c0.5,0.6-0.1,0.3,0.8,0.4c-0.2-0.1-0.1-0.1-0.3-0.3C42.4,130.2,42.8,130.3,42.4,130.3z"/>
<path class="st1" d="M42.3,403c0.5,0.6-0.1,0.3,0.8,0.4c-0.1-0.1-0.1-0.1-0.3-0.3C42.3,402.9,42.7,403.1,42.3,403z"/>
<path class="st1" d="M41.9,371.9c0.1,0.6,0,0.3,0.4,0.6C42.2,371.4,42.5,372.1,41.9,371.9z"/>
<path class="st1" d="M39.6,206.7c0-0.1,0.4,0.2,0.1-0.4c-0.3-0.5,0.2,0-0.3-0.2C39.5,206.6,39.3,206.3,39.6,206.7z"/>
<path class="st1" d="M42.4,99.8l0-0.6C41.8,99.6,41.8,99.3,42.4,99.8z"/>
<path class="st1" d="M41.7,372.7l0-0.6C41.1,372.5,41.1,372.2,41.7,372.7z"/>
<path class="st1" d="M41.8,99.9l0-0.6C41.2,99.8,41.2,99.5,41.8,99.9z"/>
<path class="st1" d="M41.7,326.7l0.4,0.4c0-1.1,0-0.3-0.2-0.6L41.7,326.7z"/>
<path class="st1" d="M41.8,54l0.4,0.4c0-1.1,0-0.3-0.2-0.6L41.8,54z"/>
<path class="st1" d="M44.9,30.1c0.1,0.6,0,0.3,0.4,0.6C45.2,30.4,45.2,30.2,44.9,30.1z"/>
<path class="st1" d="M42.1,336.5c0.1,0.6,0,0.3,0.4,0.6C42.4,336.8,42.5,336.6,42.1,336.5z"/>
<path class="st1" d="M42.2,63.8c0.1,0.6,0,0.3,0.4,0.6C42.6,64.1,42.6,63.9,42.2,63.8z"/>
<path class="st1" d="M44.7,302.8c0.1,0.6,0,0.3,0.4,0.6C45.1,303.1,45.1,302.9,44.7,302.8z"/>
<rect x="37" y="236.6" class="st1" width="0.2" height="0.6"/>
<rect x="46.5" y="49.2" class="st1" width="0.2" height="0.6"/>
<rect x="39.8" y="226.5" class="st1" width="0.2" height="0.6"/>
<rect x="41.2" y="81.7" class="st1" width="0.2" height="0.6"/>
<polygon class="st1" points="43.7,9.7 43.7,10.3 43.9,10.3 43.9,9.7 "/>
<rect x="43.6" y="282.3" class="st1" width="0.2" height="0.6"/>
<rect x="46.4" y="321.9" class="st1" width="0.2" height="0.6"/>
<rect x="41.1" y="354.4" class="st1" width="0.2" height="0.6"/>
<rect x="38.2" y="119" class="st1" width="0.2" height="0.6"/>
<rect x="45.4" y="308.6" class="st1" width="0.2" height="0.6"/>
<rect x="45.5" y="35.9" class="st1" width="0.2" height="0.6"/>
<rect x="38.1" y="391.7" class="st1" width="0.2" height="0.6"/>
<rect x="48.5" y="404.6" class="st1" width="0.2" height="0.6"/>
<rect x="40.8" y="248.6" class="st1" width="0.2" height="0.6"/>
<rect x="48.6" y="131.8" class="st1" width="0.2" height="0.6"/>
<rect x="42" y="69" class="st1" width="0.2" height="0.6"/>
<rect x="39.6" y="163" class="st1" width="0.2" height="0.6"/>
<rect x="41.9" y="341.7" class="st1" width="0.2" height="0.6"/>
<path class="st1" d="M39.3,290.8l0.4-0.6C39.2,290.4,39.3,289.8,39.3,290.8z"/>
<path class="st1" d="M43.9,411c0.6-0.2,0.3,0.4,0.4-0.6c0,0,0,0.1-0.1,0.1c-0.1,0-0.1,0.1-0.1,0.1L43.9,411z"/>
<path class="st1" d="M44.2,182.9c0.4-0.3,0.2,0,0.4-0.6C44.1,182.5,44.4,182.3,44.2,182.9z"/>
<path class="st1" d="M44,138.3c0.6-0.2,0.3,0.4,0.4-0.6c0,0,0,0.1-0.1,0.1L44,138.3z"/>
<path class="st1" d="M44.5,305.4c-0.2,0-0.4,0.4,0,0.3C44.7,305.6,45.1,305.3,44.5,305.4z"/>
<path class="st1" d="M44.7,32.7c-0.2,0-0.4,0.4,0,0.3C44.8,32.9,45.2,32.6,44.7,32.7z"/>
<path class="st1" d="M42.3,334.3c0.5-0.1,0.3,0.1,0.4-0.4C42.2,334.1,42.5,333.9,42.3,334.3z"/>
<path class="st1" d="M42.4,61.6c0.5-0.1,0.3,0.1,0.4-0.4C42.3,61.4,42.6,61.1,42.4,61.6z"/>
<path class="st1" d="M41.2,86.9c-0.2,0.2,0.3,0.7,0.1,0.2C41.3,87.1,41.6,86.6,41.2,86.9z"/>
<path class="st1" d="M39.4,229.7c-0.2,0.2,0.3,0.7,0.1,0.2C39.5,230,39.7,229.4,39.4,229.7z"/>
<path class="st1" d="M39.4,209.9c-0.2,0.2,0.3,0.7,0.1,0.2C39.5,210.1,39.7,209.6,39.4,209.9z"/>
<path class="st1" d="M41.1,375.7c-0.2,0.2,0.3,0.7,0.1,0.2C41.2,375.9,41.4,375.3,41.1,375.7z"/>
<path class="st1" d="M41.6,111.2c-0.2,0.2,0.3,0.7,0.1,0.2C41.7,111.4,41.9,110.9,41.6,111.2z"/>
<path class="st1" d="M41,72.5c-0.2,0.2,0.3,0.7,0.1,0.2C41.1,72.7,41.4,72.1,41,72.5z"/>
<path class="st1" d="M42.8,16.7c-0.2,0.2,0.3,0.7,0.1,0.2C43,16.9,43.2,16.3,42.8,16.7z"/>
<path class="st1" d="M40.4,225c-0.2,0.2,0.3,0.7,0.1,0.2C40.5,225.2,40.7,224.6,40.4,225z"/>
<path class="st1" d="M40.9,345.2c-0.2,0.2,0.3,0.7,0.1,0.2C41,345.4,41.2,344.8,40.9,345.2z"/>
<path class="st1" d="M41.5,383.9c-0.2,0.2,0.3,0.7,0.1,0.2C41.6,384.1,41.8,383.6,41.5,383.9z"/>
<path class="st1" d="M42.1,301.6c-0.2,0.2,0.3,0.7,0.1,0.2C42.2,301.8,42.5,301.3,42.1,301.6z"/>
<path class="st1" d="M42.2,28.9c-0.2,0.2,0.3,0.7,0.1,0.2C42.3,29.1,42.5,28.6,42.2,28.9z"/>
<path class="st1" d="M42.7,339.4c-0.2,0.2,0.3,0.7,0.1,0.2C42.8,339.6,43.1,339,42.7,339.4z"/>
<path class="st1" d="M40.6,236.8c-0.2,0.2,0.3,0.7,0.1,0.2C40.7,237,40.9,236.5,40.6,236.8z"/>
<path class="st1" d="M41.2,75.3c-0.2,0.2,0.3,0.7,0.1,0.2C41.3,75.5,41.6,74.9,41.2,75.3z"/>
<path class="st1" d="M41.1,359.6c-0.2,0.2,0.3,0.7,0.1,0.2C41.2,359.8,41.4,359.3,41.1,359.6z"/>
<path class="st1" d="M38.1,228.4c-0.2,0.2,0.3,0.7,0.1,0.2C38.3,228.6,38.5,228,38.1,228.4z"/>
<path class="st1" d="M41.2,103c-0.2,0.2,0.3,0.7,0.1,0.2C41.3,103.2,41.5,102.6,41.2,103z"/>
<path class="st1" d="M41.1,348c-0.2,0.2,0.3,0.7,0.1,0.2C41.2,348.2,41.4,347.6,41.1,348z"/>
<path class="st1" d="M40.5,253.1c-0.2,0.2,0.3,0.7,0.1,0.2C40.7,253.3,40.9,252.7,40.5,253.1z"/>
<path class="st1" d="M39.2,202.3c-0.2,0.2,0.3,0.7,0.1,0.2C39.3,202.5,39.5,202,39.2,202.3z"/>
<path class="st1" d="M42.8,66.6c-0.2,0.2,0.3,0.7,0.1,0.2C42.9,66.9,43.2,66.3,42.8,66.6z"/>
<path class="st1" d="M42.7,289.4c-0.2,0.2,0.3,0.7,0.1,0.2C42.8,289.6,43.1,289,42.7,289.4z"/>
<path class="st1" d="M41.5,262.7c-0.2,0.2,0.3,0.7,0.1,0.2C41.6,262.9,41.9,262.4,41.5,262.7z"/>
<path class="st1" d="M40.2,238.2c-0.2,0.2,0.3,0.7,0.1,0.2C40.3,238.4,40.5,237.9,40.2,238.2z"/>
<path class="st1" d="M40.7,379.3c-0.2,0.2,0.3,0.7,0.1,0.2C40.8,379.5,41,379,40.7,379.3z"/>
<path class="st1" d="M36.5,236.8c-0.2,0.2,0.3,0.7,0.1,0.2C36.6,237,36.9,236.5,36.5,236.8z"/>
<path class="st1" d="M40.7,267.7c-0.2,0.2,0.3,0.7,0.1,0.2C40.8,267.9,41.1,267.4,40.7,267.7z"/>
<path class="st1" d="M40.8,106.6c-0.2,0.2,0.3,0.7,0.1,0.2C40.9,106.8,41.1,106.2,40.8,106.6z"/>
<path class="st1" d="M41.1,261.3c-0.2,0-0.5,0.4,0,0.3s0,0.5,0.1-0.1C41.2,261.3,41.6,261.3,41.1,261.3z"/>
<path class="st1" d="M42.1,377.5c-0.2,0-0.5,0.4,0,0.3c0.5-0.1,0,0.5,0.1-0.1C42.2,377.4,42.5,377.5,42.1,377.5z"/>
<path class="st1" d="M42.2,104.8c-0.2,0-0.5,0.4,0,0.3c0.4-0.1,0,0.5,0.1-0.1C42.3,104.8,42.6,104.8,42.2,104.8z"/>
<path class="st1" d="M40.4,14.1c-0.2,0-0.5,0.4,0,0.3c0.4-0.1,0,0.5,0.1-0.1C40.5,14,40.9,14.1,40.4,14.1z"/>
<path class="st1" d="M41.3,319.3c-0.1,0,0,0.2,0,0.2c0,0-0.5,0.3,0.1,0.1C41.4,319.6,41.7,319.2,41.3,319.3z"/>
<path class="st1" d="M41.5,314.7c-0.1,0,0,0.2,0,0.2s-0.5,0.3,0.1,0.1C41.5,315,41.9,314.6,41.5,314.7z"/>
<path class="st1" d="M40.7,365.8l0.4,0.2c-0.1-0.3,0.1-0.2-0.1-0.3C40.7,365.7,41,365.7,40.7,365.8z"/>
<path class="st1" d="M40.8,93.1l0.4,0.2c-0.1-0.3,0.1-0.2-0.1-0.3C40.8,93,41.1,93,40.8,93.1z"/>
<path class="st1" d="M42.8,183.8c-0.1,0,0,0.2,0,0.2c0,0-0.5,0.3,0,0.1l0,0C42.9,183.8,43.1,183.8,42.8,183.8z"/>
<path class="st1" d="M41.2,195.9c-0.1,0,0,0.2,0,0.2c0,0-0.5,0.3,0,0.1l0,0l0-0.1C41.2,195.9,41.6,195.8,41.2,195.9z"/>
<path class="st1" d="M41.4,46.6c-0.1,0,0,0.2,0,0.2c0,0-0.5,0.3,0.1,0.1l0-0.1C41.5,46.6,41.9,46.5,41.4,46.6z"/>
<path class="st1" d="M41.6,42c-0.1,0,0,0.2,0,0.2c0,0-0.5,0.3,0,0.1l0.1-0.1C41.7,42,42.1,41.9,41.6,42z"/>
<polygon class="st1" points="41,68.2 41,68.4 41.3,68.3 "/>
<polygon class="st1" points="40.9,341 40.9,341.2 41.1,341 "/>
<polygon class="st1" points="37.9,224.8 37.7,224.8 37.9,225 "/>
<path class="st1" d="M46.7,48.6L46.7,48.6C46.6,48.8,46.2,48.3,46.7,48.6L46.7,48.6L46.7,48.6C46.6,48.7,46.7,48.6,46.7,48.6z"/>
<path class="st1" d="M39.9,6C39.9,6,39.9,6.1,39.9,6L39.9,6C39.9,6.1,39.9,6,39.9,6z"/>
<path class="st1" d="M39.4,227.4L39.4,227.4C39.4,227.4,39.4,227.4,39.4,227.4z"/>
<path class="st1" d="M42.3,269.9L42.3,269.9C42.4,270,42.3,269.9,42.3,269.9z"/>
<path class="st1" d="M38.3,232.2L38.3,232.2C38.4,232.3,38.4,232.2,38.3,232.2z"/>
<path class="st1" d="M41.7,288.2L41.7,288.2C41.8,288.2,41.8,288.2,41.7,288.2z"/>
<path class="st1" d="M42.2,228L42.2,228C42.2,228,42.2,228,42.2,228z"/>
<path class="st1" d="M39.7,251.1L39.7,251.1L39.7,251.1C39.8,251.1,39.8,251,39.7,251.1z"/>
<path class="st1" d="M41.5,261.7L41.5,261.7L41.5,261.7C41.6,261.8,41.6,261.7,41.5,261.7z"/>
<path class="st1" d="M42.2,261.7L42.2,261.7L42.2,261.7C42.2,261.8,42.2,261.7,42.2,261.7z"/>
<path class="st1" d="M42.2,50.4L42.2,50.4C42.3,50.4,42.3,50.4,42.2,50.4z"/>
<path class="st1" d="M39.4,232.4L39.4,232.4L39.4,232.4C39.4,232.5,39.4,232.4,39.4,232.4z"/>
<path class="st1" d="M39.4,224.4l-0.2,0.4L39.4,224.4z"/>
<path class="st1" d="M39.4,224.4l0.2-0.4L39.4,224.4z"/>
<path class="st1" d="M41.5,381.7l0.4-0.1L41.5,381.7z"/>
</svg>
