<svg xmlns="http://www.w3.org/2000/svg" xml:space="preserve" version="1.1" style="shape-rendering:geometricPrecision; text-rendering:geometricPrecision; image-rendering:optimizeQuality; fill-rule:evenodd; clip-rule:evenodd" viewBox="0 0 1778 1060" xmlns:xlink="http://www.w3.org/1999/xlink">
    <defs>
        <style type="text/css">
            <![CDATA[
            .fil0 {
                fill: #2B2A29
            }

            .fil1 {
                fill: #D4A455
            }
            ]]>
        </style>
    </defs>
    <g>
        <metadata id="CorelCorpID_0Corel-Layer" />
        <path class="fil0" d="M1506 557l0 0 -28 -33 28 -31c7,0 13,0 19,0 9,-1 18,-2 25,-4 14,-4 23,-10 27,-15 5,-5 7,-9 9,-14 2,-6 3,-7 2,-13 -1,-18 -9,-44 -23,-79l-95 -237 74 0 84 211 76 -211 74 0 -138 362 0 2 -1 1c0,0 -30,64 -133,61l0 0zm-1483 -333c0,-60 16,-110 49,-151 33,-41 76,-62 131,-62 60,0 106,19 138,56 31,37 47,90 47,157 0,67 -16,121 -49,160 -15,18 -33,32 -54,42 -20,-2 -70,7 -87,14 -1,0 -2,1 -3,1 -56,0 -97,-17 -127,-56 -30,-39 -45,-93 -45,-161zm77 0c0,49 8,87 25,113 16,27 41,41 72,41 37,0 65,-14 85,-40 19,-26 29,-64 29,-114 0,-98 -36,-147 -108,-147 -33,0 -59,13 -76,40 -18,26 -27,62 -27,107zm336 -207l71 -17 0 344c0,37 11,60 34,67 -8,15 -20,24 -37,28 -11,-4 -25,-6 -51,-9 -12,-10 -17,-28 -17,-55l0 -358zm330 420l0 -19c-6,7 -15,12 -30,17 -14,5 -28,8 -43,8 -10,0 -19,-1 -28,-3 2,-9 2,-19 -6,-28 -5,-5 -15,-8 -26,-11 -12,-2 -27,-3 -37,-3l-7 1c-22,-27 -34,-64 -34,-110 0,-49 14,-88 42,-118 29,-31 64,-46 106,-46 23,0 44,5 63,14l0 -122 72 -17 0 437 -72 0zm-117 0c-15,-4 -28,-11 -40,-20 -1,-1 -1,-2 -2,-3 7,1 16,2 23,3 8,2 15,4 17,6 3,4 3,9 2,14zm117 -233c-15,-12 -31,-18 -47,-18 -29,0 -51,9 -66,26 -16,17 -23,42 -23,75 0,64 30,95 92,95 6,0 15,-2 25,-6 10,-4 16,-8 19,-12l0 -160zm248 233l-128 0 0 -418c57,-3 96,-4 119,-4 43,0 77,9 102,27 24,19 37,46 37,80 0,33 -18,60 -53,79 52,18 78,55 78,112 0,38 -15,68 -43,90 -29,22 -66,34 -112,34zm-53 -359l0 100c11,1 23,1 36,1 48,0 72,-18 72,-54 0,-32 -22,-48 -66,-48 -11,0 -26,0 -42,1zm0 158l0 138c15,2 27,2 36,2 33,0 57,-5 72,-16 15,-12 23,-30 23,-56 0,-24 -7,-41 -21,-52 -14,-11 -38,-16 -73,-16 -7,0 -20,0 -37,0zm223 47c0,-47 13,-85 40,-114 27,-29 63,-44 107,-44 46,0 82,14 108,42 26,29 38,67 38,116 0,28 -4,53 -12,74 -1,-1 -2,-1 -2,-2 -11,-15 -35,2 -45,9 -11,9 -17,14 -26,24 -6,8 -13,15 -19,21l0 1 -20 23c-1,1 -2,2 -3,3 -1,1 -3,2 -4,4l-2 2c-4,0 -9,1 -13,1 -47,0 -83,-15 -108,-44 -26,-29 -39,-68 -39,-116zm273 90c-5,9 -11,18 -19,26 -9,0 -14,1 -21,5 -5,3 -6,15 -15,23 -10,5 -21,9 -33,12l16 -19c7,-7 13,-14 19,-21 3,-3 6,-6 8,-9 3,-3 10,-8 16,-13 5,-4 10,-7 13,-10 2,0 4,-1 6,-1 1,0 3,1 5,1 1,1 1,1 2,2l0 0c1,1 2,2 3,4zm-199 -90c0,67 24,101 73,101 22,0 40,-9 53,-26 13,-18 19,-43 19,-75 0,-66 -24,-99 -72,-99 -22,0 -40,8 -53,26 -13,17 -20,42 -20,73z" />
        <path class="fil1" d="M720 620c9,2 -16,35 -37,65 -14,20 -120,147 -146,129 -23,-17 109,-175 183,-194zm-712 104c-21,-323 363,-286 571,-236 -4,18 -98,155 -104,161 -278,64 -262,137 -231,128 -5,0 -7,-2 -6,-8 6,-50 168,-85 215,-90 -62,89 -196,175 -303,190 -36,5 -74,-4 -88,-38 -7,-16 -8,-39 -3,-56 9,-33 33,-48 54,-70 -18,1 -48,33 -57,48 -14,23 -18,59 -5,86 47,95 196,47 309,-29 73,-49 143,-129 151,-139 13,-9 53,-17 102,-11 -33,24 -79,83 -95,109 -8,14 -25,35 -19,55 6,16 20,24 43,19 40,-9 84,-72 111,-103 -11,28 -90,121 -52,159 9,8 25,4 32,-3 6,-6 13,-11 16,-19 -3,3 -27,26 -33,20 -5,-11 3,-47 8,-58 16,-40 50,-88 75,-123 20,-29 45,-64 74,-84 2,-2 4,-4 7,-6 17,-15 -17,-27 -28,-30 -16,-4 -17,3 -23,11 -7,-4 -13,-14 -22,-15 -20,-3 -79,49 -86,59 -26,-7 -83,-9 -91,-8 15,-24 85,-118 101,-143 74,31 279,49 315,-35 -19,11 -25,13 -39,18 -51,20 -200,30 -264,-10 11,-15 24,-44 10,-59 -9,-9 -41,-12 -56,-11 0,13 9,11 5,33 -2,10 -5,18 -10,25 -321,-84 -648,-17 -584,263z" />
        <path class="fil1" d="M1252 618c15,-40 106,-135 124,-157 87,-107 74,-38 22,23 -53,61 -160,168 -146,134zm127 -207l-20 24c-3,2 -5,4 -7,6 -43,52 -82,106 -124,159 -16,21 -37,42 -55,60 -25,26 -155,160 -174,166 8,-47 84,-141 122,-179 13,-13 51,-30 11,-50 -30,-15 -140,122 -139,130 9,-1 55,-57 65,-68 8,-9 11,-13 22,-20 -27,38 -55,75 -79,116 -8,13 -30,50 -34,64 -4,15 6,26 17,30 15,6 29,-8 35,-15 42,-44 164,-171 192,-195 -4,7 -11,15 -16,23 -20,28 -58,91 -71,120 -12,27 -13,52 4,65 35,26 131,-91 161,-122 4,-4 7,-5 10,-9 -2,-1 -5,-14 -8,-11 -15,14 -114,136 -141,115 -17,-9 63,-139 88,-159 11,-8 19,-14 29,-22 58,-47 225,-202 199,-270 -16,-43 -73,28 -87,42z" />
        <path class="fil1" d="M928 1013c3,9 20,21 29,25 53,25 101,27 158,14 184,-35 395,-342 424,-410 2,-4 7,-14 6,-18 -8,-19 -27,-41 -51,-11 -54,67 -176,235 -191,216 -24,-12 98,-171 133,-193 6,-4 10,-7 12,-14 3,-22 -16,-34 -35,-27 -50,18 -149,141 -162,160 18,-6 42,-33 48,-39 13,-14 67,-69 78,-72 -38,62 -112,154 -99,198 18,61 205,-185 198,-173 -87,157 -255,423 -496,365 -18,-5 -34,-11 -52,-21z" />
        <path class="fil1" d="M730 795c7,-28 71,-97 96,-127 13,-16 74,-71 62,-91 -2,-4 -8,-8 -14,-8 -13,-1 -22,10 -29,16 -19,19 -26,35 -39,49 -15,16 -29,30 -43,47 -8,9 -21,20 -33,34 -5,6 -9,5 -8,13 8,-1 42,-38 57,-50l18 -15c-1,10 -79,123 -90,140 -7,11 -28,43 -12,55 6,-11 16,-31 23,-40 3,-5 9,-11 13,-14l45 -44c15,-15 30,-29 45,-44 6,-6 40,-42 45,-43 -2,7 -12,19 -17,27 -8,13 -45,84 -23,93 -6,7 -13,11 -12,26 7,-2 73,-80 81,-90l47 -54c-3,8 -9,15 -13,24 -68,123 -17,200 34,129 -33,24 -43,15 -42,-23 0,-58 59,-130 99,-168 -3,-9 -14,-19 -25,-22 -16,-5 -38,29 -49,41 -36,41 -74,81 -110,122 1,-13 28,-56 36,-67 8,-12 20,-29 29,-40 17,-21 4,-40 -16,-26 -13,8 -55,45 -64,56 -16,19 -40,42 -58,62 -7,6 -11,10 -17,16l-16 16z" />
        <path class="fil1" d="M1183 582c6,-12 67,-107 67,-109l-1 -2c-14,-3 -61,45 -71,56l-31 33c-4,4 -6,4 -1,9 2,2 7,5 10,7 6,2 20,7 27,6z" />
    </g>
</svg>