<?xml version="1.0" encoding="utf-8"?>
<!-- Generator: Adobe Illustrator 23.0.1, SVG Export Plug-In . SVG Version: 6.00 Build 0)  -->
<svg version="1.1" id="Layer_1" xmlns="http://www.w3.org/2000/svg" xmlns:xlink="http://www.w3.org/1999/xlink" x="0px" y="0px"
	 viewBox="0 0 32 32" style="enable-background:new 0 0 32 32;" xml:space="preserve">
<style type="text/css">
	.st0{fill:#82F4D3;}
</style>
<path class="st0" d="M28.83,22H9.24l-5-18H1V2h4.76l5,18h16.41l1.64-9H13V9h18.2L28.83,22z"/>
<path class="st0" d="M12,30c-1.65,0-3-1.35-3-3c0-1.65,1.35-3,3-3c1.65,0,3,1.35,3,3C15,28.65,13.65,30,12,30z M12,26
	c-0.55,0-1,0.45-1,1c0,0.55,0.45,1,1,1c0.55,0,1-0.45,1-1C13,26.45,12.55,26,12,26z"/>
<path class="st0" d="M25,30c-1.65,0-3-1.35-3-3c0-1.65,1.35-3,3-3c1.65,0,3,1.35,3,3C28,28.65,26.65,30,25,30z M25,26
	c-0.55,0-1,0.45-1,1c0,0.55,0.45,1,1,1c0.55,0,1-0.45,1-1C26,26.45,25.55,26,25,26z"/>
<path class="st0" d="M15,13h2v5h-2V13z"/>
<path class="st0" d="M21,13h2v5h-2V13z"/>
</svg>
